<mxfile host="app.diagrams.net" modified="2023-03-29T20:58:26.521Z" agent="Mozilla/5.0 (Windows NT 10.0; Win64; x64) AppleWebKit/537.36 (KHTML, like Gecko) Chrome/111.0.0.0 Safari/537.36" etag="sOZTfbGC07_8ewEkSlwI" version="21.1.2" type="github">
  <diagram name="Страница 1" id="Kiy2GkQN20SqCoH5sYRh">
    <mxGraphModel dx="2342" dy="1248" grid="1" gridSize="10" guides="1" tooltips="1" connect="1" arrows="1" fold="1" page="1" pageScale="1" pageWidth="3300" pageHeight="4681" math="0" shadow="0">
      <root>
        <mxCell id="0" />
        <mxCell id="1" parent="0" />
        <mxCell id="axmBf0sNK8sAseNuWQ9q-1" value="games" style="shape=table;startSize=30;container=1;collapsible=0;childLayout=tableLayout;fixedRows=1;rowLines=1;fontStyle=0;strokeColor=default;fontSize=16;swimlaneFillColor=none;perimeterSpacing=0;" parent="1" vertex="1">
          <mxGeometry x="718" y="870" width="640" height="390" as="geometry" />
        </mxCell>
        <mxCell id="axmBf0sNK8sAseNuWQ9q-2" value="" style="shape=tableRow;horizontal=0;startSize=0;swimlaneHead=0;swimlaneBody=0;top=0;left=0;bottom=0;right=0;collapsible=0;dropTarget=0;fillColor=none;points=[[0,0.5],[1,0.5]];portConstraint=eastwest;strokeColor=inherit;fontSize=16;" parent="axmBf0sNK8sAseNuWQ9q-1" vertex="1">
          <mxGeometry y="30" width="640" height="30" as="geometry" />
        </mxCell>
        <mxCell id="axmBf0sNK8sAseNuWQ9q-3" value="id" style="shape=partialRectangle;html=1;whiteSpace=wrap;connectable=0;fillColor=none;top=0;left=0;bottom=0;right=0;overflow=hidden;pointerEvents=1;strokeColor=inherit;fontSize=16;" parent="axmBf0sNK8sAseNuWQ9q-2" vertex="1">
          <mxGeometry width="270" height="30" as="geometry">
            <mxRectangle width="270" height="30" as="alternateBounds" />
          </mxGeometry>
        </mxCell>
        <mxCell id="axmBf0sNK8sAseNuWQ9q-4" value="INTEGER" style="shape=partialRectangle;html=1;whiteSpace=wrap;connectable=0;fillColor=none;top=0;left=0;bottom=0;right=0;align=left;spacingLeft=6;overflow=hidden;strokeColor=inherit;fontSize=16;" parent="axmBf0sNK8sAseNuWQ9q-2" vertex="1">
          <mxGeometry x="270" width="130" height="30" as="geometry">
            <mxRectangle width="130" height="30" as="alternateBounds" />
          </mxGeometry>
        </mxCell>
        <mxCell id="axmBf0sNK8sAseNuWQ9q-23" value="primary_key, autoincrement" style="shape=partialRectangle;html=1;whiteSpace=wrap;connectable=0;fillColor=none;top=0;left=0;bottom=0;right=0;align=left;spacingLeft=6;overflow=hidden;strokeColor=inherit;fontSize=16;" parent="axmBf0sNK8sAseNuWQ9q-2" vertex="1">
          <mxGeometry x="400" width="240" height="30" as="geometry">
            <mxRectangle width="240" height="30" as="alternateBounds" />
          </mxGeometry>
        </mxCell>
        <mxCell id="axmBf0sNK8sAseNuWQ9q-5" value="" style="shape=tableRow;horizontal=0;startSize=0;swimlaneHead=0;swimlaneBody=0;top=0;left=0;bottom=0;right=0;collapsible=0;dropTarget=0;fillColor=none;points=[[0,0.5],[1,0.5]];portConstraint=eastwest;strokeColor=inherit;fontSize=16;" parent="axmBf0sNK8sAseNuWQ9q-1" vertex="1">
          <mxGeometry y="60" width="640" height="30" as="geometry" />
        </mxCell>
        <mxCell id="axmBf0sNK8sAseNuWQ9q-6" value="chat_id&lt;span style=&quot;color: rgb(173, 186, 199); font-family: ui-monospace, SFMono-Regular, &amp;quot;SF Mono&amp;quot;, Menlo, Consolas, &amp;quot;Liberation Mono&amp;quot;, monospace; font-size: 12px; text-align: start; background-color: rgb(34, 39, 46);&quot;&gt; &lt;/span&gt;" style="shape=partialRectangle;html=1;whiteSpace=wrap;connectable=0;fillColor=none;top=0;left=0;bottom=0;right=0;overflow=hidden;strokeColor=inherit;fontSize=16;" parent="axmBf0sNK8sAseNuWQ9q-5" vertex="1">
          <mxGeometry width="270" height="30" as="geometry">
            <mxRectangle width="270" height="30" as="alternateBounds" />
          </mxGeometry>
        </mxCell>
        <mxCell id="axmBf0sNK8sAseNuWQ9q-7" value="BIGINT" style="shape=partialRectangle;html=1;whiteSpace=wrap;connectable=0;fillColor=none;top=0;left=0;bottom=0;right=0;align=left;spacingLeft=6;overflow=hidden;strokeColor=inherit;fontSize=16;" parent="axmBf0sNK8sAseNuWQ9q-5" vertex="1">
          <mxGeometry x="270" width="130" height="30" as="geometry">
            <mxRectangle width="130" height="30" as="alternateBounds" />
          </mxGeometry>
        </mxCell>
        <mxCell id="axmBf0sNK8sAseNuWQ9q-24" value="not null" style="shape=partialRectangle;html=1;whiteSpace=wrap;connectable=0;fillColor=none;top=0;left=0;bottom=0;right=0;align=left;spacingLeft=6;overflow=hidden;strokeColor=inherit;fontSize=16;" parent="axmBf0sNK8sAseNuWQ9q-5" vertex="1">
          <mxGeometry x="400" width="240" height="30" as="geometry">
            <mxRectangle width="240" height="30" as="alternateBounds" />
          </mxGeometry>
        </mxCell>
        <mxCell id="s3mZJwamYYUPRJ0tXp7X-76" style="shape=tableRow;horizontal=0;startSize=0;swimlaneHead=0;swimlaneBody=0;top=0;left=0;bottom=0;right=0;collapsible=0;dropTarget=0;fillColor=none;points=[[0,0.5],[1,0.5]];portConstraint=eastwest;strokeColor=inherit;fontSize=16;" vertex="1" parent="axmBf0sNK8sAseNuWQ9q-1">
          <mxGeometry y="90" width="640" height="30" as="geometry" />
        </mxCell>
        <mxCell id="s3mZJwamYYUPRJ0tXp7X-77" value="created_at" style="shape=partialRectangle;html=1;whiteSpace=wrap;connectable=0;fillColor=none;top=0;left=0;bottom=0;right=0;overflow=hidden;strokeColor=inherit;fontSize=16;" vertex="1" parent="s3mZJwamYYUPRJ0tXp7X-76">
          <mxGeometry width="270" height="30" as="geometry">
            <mxRectangle width="270" height="30" as="alternateBounds" />
          </mxGeometry>
        </mxCell>
        <mxCell id="s3mZJwamYYUPRJ0tXp7X-79" value="DateTime" style="shape=partialRectangle;html=1;whiteSpace=wrap;connectable=0;fillColor=none;top=0;left=0;bottom=0;right=0;align=left;spacingLeft=6;overflow=hidden;strokeColor=inherit;fontSize=16;" vertex="1" parent="s3mZJwamYYUPRJ0tXp7X-76">
          <mxGeometry x="270" width="130" height="30" as="geometry">
            <mxRectangle width="130" height="30" as="alternateBounds" />
          </mxGeometry>
        </mxCell>
        <mxCell id="s3mZJwamYYUPRJ0tXp7X-78" value="default (utcnow)" style="shape=partialRectangle;html=1;whiteSpace=wrap;connectable=0;fillColor=none;top=0;left=0;bottom=0;right=0;align=left;spacingLeft=6;overflow=hidden;strokeColor=inherit;fontSize=16;" vertex="1" parent="s3mZJwamYYUPRJ0tXp7X-76">
          <mxGeometry x="400" width="240" height="30" as="geometry">
            <mxRectangle width="240" height="30" as="alternateBounds" />
          </mxGeometry>
        </mxCell>
        <mxCell id="s3mZJwamYYUPRJ0tXp7X-80" style="shape=tableRow;horizontal=0;startSize=0;swimlaneHead=0;swimlaneBody=0;top=0;left=0;bottom=0;right=0;collapsible=0;dropTarget=0;fillColor=none;points=[[0,0.5],[1,0.5]];portConstraint=eastwest;strokeColor=inherit;fontSize=16;" vertex="1" parent="axmBf0sNK8sAseNuWQ9q-1">
          <mxGeometry y="120" width="640" height="30" as="geometry" />
        </mxCell>
        <mxCell id="s3mZJwamYYUPRJ0tXp7X-81" value="finished_at" style="shape=partialRectangle;html=1;whiteSpace=wrap;connectable=0;fillColor=none;top=0;left=0;bottom=0;right=0;overflow=hidden;strokeColor=inherit;fontSize=16;" vertex="1" parent="s3mZJwamYYUPRJ0tXp7X-80">
          <mxGeometry width="270" height="30" as="geometry">
            <mxRectangle width="270" height="30" as="alternateBounds" />
          </mxGeometry>
        </mxCell>
        <mxCell id="s3mZJwamYYUPRJ0tXp7X-82" value="DateTime" style="shape=partialRectangle;html=1;whiteSpace=wrap;connectable=0;fillColor=none;top=0;left=0;bottom=0;right=0;align=left;spacingLeft=6;overflow=hidden;strokeColor=inherit;fontSize=16;" vertex="1" parent="s3mZJwamYYUPRJ0tXp7X-80">
          <mxGeometry x="270" width="130" height="30" as="geometry">
            <mxRectangle width="130" height="30" as="alternateBounds" />
          </mxGeometry>
        </mxCell>
        <mxCell id="s3mZJwamYYUPRJ0tXp7X-83" value="" style="shape=partialRectangle;html=1;whiteSpace=wrap;connectable=0;fillColor=none;top=0;left=0;bottom=0;right=0;align=left;spacingLeft=6;overflow=hidden;strokeColor=inherit;fontSize=16;" vertex="1" parent="s3mZJwamYYUPRJ0tXp7X-80">
          <mxGeometry x="400" width="240" height="30" as="geometry">
            <mxRectangle width="240" height="30" as="alternateBounds" />
          </mxGeometry>
        </mxCell>
        <mxCell id="axmBf0sNK8sAseNuWQ9q-8" value="" style="shape=tableRow;horizontal=0;startSize=0;swimlaneHead=0;swimlaneBody=0;top=0;left=0;bottom=0;right=0;collapsible=0;dropTarget=0;fillColor=none;points=[[0,0.5],[1,0.5]];portConstraint=eastwest;strokeColor=inherit;fontSize=16;" parent="axmBf0sNK8sAseNuWQ9q-1" vertex="1">
          <mxGeometry y="150" width="640" height="30" as="geometry" />
        </mxCell>
        <mxCell id="axmBf0sNK8sAseNuWQ9q-9" value="players&lt;span style=&quot;box-sizing: border-box; color: rgb(173, 186, 199); font-family: ui-monospace, SFMono-Regular, &amp;quot;SF Mono&amp;quot;, Menlo, Consolas, &amp;quot;Liberation Mono&amp;quot;, monospace; font-size: 12px; text-align: start; background-color: rgb(34, 39, 46);&quot; class=&quot;pl-s1&quot;&gt;&lt;/span&gt;&lt;span style=&quot;color: rgb(173, 186, 199); font-family: ui-monospace, SFMono-Regular, &amp;quot;SF Mono&amp;quot;, Menlo, Consolas, &amp;quot;Liberation Mono&amp;quot;, monospace; font-size: 12px; text-align: start; background-color: rgb(34, 39, 46);&quot;&gt;&lt;/span&gt;&lt;span style=&quot;box-sizing: border-box; color: rgb(173, 186, 199); font-family: ui-monospace, SFMono-Regular, &amp;quot;SF Mono&amp;quot;, Menlo, Consolas, &amp;quot;Liberation Mono&amp;quot;, monospace; font-size: 12px; text-align: start; background-color: rgb(34, 39, 46);&quot; class=&quot;pl-s1&quot;&gt;&lt;/span&gt;&lt;span style=&quot;color: rgb(173, 186, 199); font-family: ui-monospace, SFMono-Regular, &amp;quot;SF Mono&amp;quot;, Menlo, Consolas, &amp;quot;Liberation Mono&amp;quot;, monospace; font-size: 12px; text-align: start; background-color: rgb(34, 39, 46);&quot;&gt;&lt;/span&gt;&lt;span style=&quot;box-sizing: border-box; color: rgb(173, 186, 199); font-family: ui-monospace, SFMono-Regular, &amp;quot;SF Mono&amp;quot;, Menlo, Consolas, &amp;quot;Liberation Mono&amp;quot;, monospace; font-size: 12px; text-align: start; background-color: rgb(34, 39, 46);&quot; class=&quot;pl-s1&quot;&gt;&lt;/span&gt;&lt;span style=&quot;color: rgb(173, 186, 199); font-family: ui-monospace, SFMono-Regular, &amp;quot;SF Mono&amp;quot;, Menlo, Consolas, &amp;quot;Liberation Mono&amp;quot;, monospace; font-size: 12px; text-align: start; background-color: rgb(34, 39, 46);&quot;&gt;&lt;/span&gt;&lt;span style=&quot;box-sizing: border-box; color: rgb(173, 186, 199); font-family: ui-monospace, SFMono-Regular, &amp;quot;SF Mono&amp;quot;, Menlo, Consolas, &amp;quot;Liberation Mono&amp;quot;, monospace; font-size: 12px; text-align: start; background-color: rgb(34, 39, 46);&quot; class=&quot;pl-s1&quot;&gt;&lt;/span&gt;&lt;span style=&quot;color: rgb(173, 186, 199); font-family: ui-monospace, SFMono-Regular, &amp;quot;SF Mono&amp;quot;, Menlo, Consolas, &amp;quot;Liberation Mono&amp;quot;, monospace; font-size: 12px; text-align: start; background-color: rgb(34, 39, 46);&quot;&gt;&lt;/span&gt;&lt;span style=&quot;box-sizing: border-box; color: rgb(173, 186, 199); font-family: ui-monospace, SFMono-Regular, &amp;quot;SF Mono&amp;quot;, Menlo, Consolas, &amp;quot;Liberation Mono&amp;quot;, monospace; font-size: 12px; text-align: start; background-color: rgb(34, 39, 46);&quot; class=&quot;pl-s1&quot;&gt;&lt;/span&gt;&lt;span style=&quot;color: rgb(173, 186, 199); font-family: ui-monospace, SFMono-Regular, &amp;quot;SF Mono&amp;quot;, Menlo, Consolas, &amp;quot;Liberation Mono&amp;quot;, monospace; font-size: 12px; text-align: start; background-color: rgb(34, 39, 46);&quot;&gt;&lt;/span&gt;&lt;span style=&quot;box-sizing: border-box; color: rgb(173, 186, 199); font-family: ui-monospace, SFMono-Regular, &amp;quot;SF Mono&amp;quot;, Menlo, Consolas, &amp;quot;Liberation Mono&amp;quot;, monospace; font-size: 12px; text-align: start; background-color: rgb(34, 39, 46);&quot; class=&quot;pl-s1&quot;&gt;&lt;/span&gt;&lt;span style=&quot;color: rgb(173, 186, 199); font-family: ui-monospace, SFMono-Regular, &amp;quot;SF Mono&amp;quot;, Menlo, Consolas, &amp;quot;Liberation Mono&amp;quot;, monospace; font-size: 12px; text-align: start; background-color: rgb(34, 39, 46);&quot;&gt;&lt;/span&gt;&lt;span style=&quot;box-sizing: border-box; color: rgb(173, 186, 199); font-family: ui-monospace, SFMono-Regular, &amp;quot;SF Mono&amp;quot;, Menlo, Consolas, &amp;quot;Liberation Mono&amp;quot;, monospace; font-size: 12px; text-align: start; background-color: rgb(34, 39, 46);&quot; class=&quot;pl-s1&quot;&gt;&lt;/span&gt;&lt;span style=&quot;color: rgb(173, 186, 199); font-family: ui-monospace, SFMono-Regular, &amp;quot;SF Mono&amp;quot;, Menlo, Consolas, &amp;quot;Liberation Mono&amp;quot;, monospace; font-size: 12px; text-align: start; background-color: rgb(34, 39, 46);&quot;&gt;&lt;/span&gt;&lt;span style=&quot;box-sizing: border-box; color: rgb(173, 186, 199); font-family: ui-monospace, SFMono-Regular, &amp;quot;SF Mono&amp;quot;, Menlo, Consolas, &amp;quot;Liberation Mono&amp;quot;, monospace; font-size: 12px; text-align: start; background-color: rgb(34, 39, 46);&quot; class=&quot;pl-s1&quot;&gt;&lt;/span&gt;&lt;span style=&quot;color: rgb(173, 186, 199); font-family: ui-monospace, SFMono-Regular, &amp;quot;SF Mono&amp;quot;, Menlo, Consolas, &amp;quot;Liberation Mono&amp;quot;, monospace; font-size: 12px; text-align: start; background-color: rgb(34, 39, 46);&quot;&gt;&lt;/span&gt;&lt;span style=&quot;box-sizing: border-box; color: rgb(173, 186, 199); font-family: ui-monospace, SFMono-Regular, &amp;quot;SF Mono&amp;quot;, Menlo, Consolas, &amp;quot;Liberation Mono&amp;quot;, monospace; font-size: 12px; text-align: start; background-color: rgb(34, 39, 46);&quot; class=&quot;pl-s1&quot;&gt;&lt;/span&gt;&lt;span style=&quot;color: rgb(173, 186, 199); font-family: ui-monospace, SFMono-Regular, &amp;quot;SF Mono&amp;quot;, Menlo, Consolas, &amp;quot;Liberation Mono&amp;quot;, monospace; font-size: 12px; text-align: start; background-color: rgb(34, 39, 46);&quot;&gt;&lt;/span&gt;&lt;span style=&quot;box-sizing: border-box; color: rgb(173, 186, 199); font-family: ui-monospace, SFMono-Regular, &amp;quot;SF Mono&amp;quot;, Menlo, Consolas, &amp;quot;Liberation Mono&amp;quot;, monospace; font-size: 12px; text-align: start; background-color: rgb(34, 39, 46);&quot; class=&quot;pl-s1&quot;&gt;&lt;/span&gt;&lt;span style=&quot;color: rgb(173, 186, 199); font-family: ui-monospace, SFMono-Regular, &amp;quot;SF Mono&amp;quot;, Menlo, Consolas, &amp;quot;Liberation Mono&amp;quot;, monospace; font-size: 12px; text-align: start; background-color: rgb(34, 39, 46);&quot;&gt;&lt;/span&gt;&lt;span style=&quot;box-sizing: border-box; color: rgb(173, 186, 199); font-family: ui-monospace, SFMono-Regular, &amp;quot;SF Mono&amp;quot;, Menlo, Consolas, &amp;quot;Liberation Mono&amp;quot;, monospace; font-size: 12px; text-align: start; background-color: rgb(34, 39, 46);&quot; class=&quot;pl-s1&quot;&gt;&lt;/span&gt;&lt;span style=&quot;color: rgb(173, 186, 199); font-family: ui-monospace, SFMono-Regular, &amp;quot;SF Mono&amp;quot;, Menlo, Consolas, &amp;quot;Liberation Mono&amp;quot;, monospace; font-size: 12px; text-align: start; background-color: rgb(34, 39, 46);&quot;&gt;&lt;/span&gt;&lt;span style=&quot;box-sizing: border-box; color: rgb(173, 186, 199); font-family: ui-monospace, SFMono-Regular, &amp;quot;SF Mono&amp;quot;, Menlo, Consolas, &amp;quot;Liberation Mono&amp;quot;, monospace; font-size: 12px; text-align: start; background-color: rgb(34, 39, 46);&quot; class=&quot;pl-s1&quot;&gt;&lt;/span&gt;&lt;span style=&quot;color: rgb(173, 186, 199); font-family: ui-monospace, SFMono-Regular, &amp;quot;SF Mono&amp;quot;, Menlo, Consolas, &amp;quot;Liberation Mono&amp;quot;, monospace; font-size: 12px; text-align: start; background-color: rgb(34, 39, 46);&quot;&gt;&lt;/span&gt;" style="shape=partialRectangle;html=1;whiteSpace=wrap;connectable=0;fillColor=none;top=0;left=0;bottom=0;right=0;overflow=hidden;strokeColor=inherit;fontSize=16;" parent="axmBf0sNK8sAseNuWQ9q-8" vertex="1">
          <mxGeometry width="270" height="30" as="geometry">
            <mxRectangle width="270" height="30" as="alternateBounds" />
          </mxGeometry>
        </mxCell>
        <mxCell id="axmBf0sNK8sAseNuWQ9q-10" value="" style="shape=partialRectangle;html=1;whiteSpace=wrap;connectable=0;fillColor=none;top=0;left=0;bottom=0;right=0;align=left;spacingLeft=6;overflow=hidden;strokeColor=inherit;fontSize=16;" parent="axmBf0sNK8sAseNuWQ9q-8" vertex="1">
          <mxGeometry x="270" width="130" height="30" as="geometry">
            <mxRectangle width="130" height="30" as="alternateBounds" />
          </mxGeometry>
        </mxCell>
        <mxCell id="axmBf0sNK8sAseNuWQ9q-25" style="shape=partialRectangle;html=1;whiteSpace=wrap;connectable=0;fillColor=none;top=0;left=0;bottom=0;right=0;align=left;spacingLeft=6;overflow=hidden;strokeColor=inherit;fontSize=16;" parent="axmBf0sNK8sAseNuWQ9q-8" vertex="1">
          <mxGeometry x="400" width="240" height="30" as="geometry">
            <mxRectangle width="240" height="30" as="alternateBounds" />
          </mxGeometry>
        </mxCell>
        <mxCell id="axmBf0sNK8sAseNuWQ9q-20" style="shape=tableRow;horizontal=0;startSize=0;swimlaneHead=0;swimlaneBody=0;top=0;left=0;bottom=0;right=0;collapsible=0;dropTarget=0;fillColor=none;points=[[0,0.5],[1,0.5]];portConstraint=eastwest;strokeColor=inherit;fontSize=16;" parent="axmBf0sNK8sAseNuWQ9q-1" vertex="1">
          <mxGeometry y="180" width="640" height="30" as="geometry" />
        </mxCell>
        <mxCell id="axmBf0sNK8sAseNuWQ9q-21" value="scores&lt;span style=&quot;color: rgb(173, 186, 199); font-family: ui-monospace, SFMono-Regular, &amp;quot;SF Mono&amp;quot;, Menlo, Consolas, &amp;quot;Liberation Mono&amp;quot;, monospace; font-size: 12px; text-align: start; background-color: rgb(34, 39, 46);&quot;&gt;&lt;/span&gt;" style="shape=partialRectangle;html=1;whiteSpace=wrap;connectable=0;fillColor=none;top=0;left=0;bottom=0;right=0;overflow=hidden;strokeColor=inherit;fontSize=16;" parent="axmBf0sNK8sAseNuWQ9q-20" vertex="1">
          <mxGeometry width="270" height="30" as="geometry">
            <mxRectangle width="270" height="30" as="alternateBounds" />
          </mxGeometry>
        </mxCell>
        <mxCell id="axmBf0sNK8sAseNuWQ9q-22" value="" style="shape=partialRectangle;html=1;whiteSpace=wrap;connectable=0;fillColor=none;top=0;left=0;bottom=0;right=0;align=left;spacingLeft=6;overflow=hidden;strokeColor=inherit;fontSize=16;" parent="axmBf0sNK8sAseNuWQ9q-20" vertex="1">
          <mxGeometry x="270" width="130" height="30" as="geometry">
            <mxRectangle width="130" height="30" as="alternateBounds" />
          </mxGeometry>
        </mxCell>
        <mxCell id="axmBf0sNK8sAseNuWQ9q-26" style="shape=partialRectangle;html=1;whiteSpace=wrap;connectable=0;fillColor=none;top=0;left=0;bottom=0;right=0;align=left;spacingLeft=6;overflow=hidden;strokeColor=inherit;fontSize=16;" parent="axmBf0sNK8sAseNuWQ9q-20" vertex="1">
          <mxGeometry x="400" width="240" height="30" as="geometry">
            <mxRectangle width="240" height="30" as="alternateBounds" />
          </mxGeometry>
        </mxCell>
        <mxCell id="s3mZJwamYYUPRJ0tXp7X-158" style="shape=tableRow;horizontal=0;startSize=0;swimlaneHead=0;swimlaneBody=0;top=0;left=0;bottom=0;right=0;collapsible=0;dropTarget=0;fillColor=none;points=[[0,0.5],[1,0.5]];portConstraint=eastwest;strokeColor=inherit;fontSize=16;" vertex="1" parent="axmBf0sNK8sAseNuWQ9q-1">
          <mxGeometry y="210" width="640" height="30" as="geometry" />
        </mxCell>
        <mxCell id="s3mZJwamYYUPRJ0tXp7X-159" value="status" style="shape=partialRectangle;html=1;whiteSpace=wrap;connectable=0;fillColor=none;top=0;left=0;bottom=0;right=0;overflow=hidden;strokeColor=inherit;fontSize=16;" vertex="1" parent="s3mZJwamYYUPRJ0tXp7X-158">
          <mxGeometry width="270" height="30" as="geometry">
            <mxRectangle width="270" height="30" as="alternateBounds" />
          </mxGeometry>
        </mxCell>
        <mxCell id="s3mZJwamYYUPRJ0tXp7X-160" value="String" style="shape=partialRectangle;html=1;whiteSpace=wrap;connectable=0;fillColor=none;top=0;left=0;bottom=0;right=0;align=left;spacingLeft=6;overflow=hidden;strokeColor=inherit;fontSize=16;" vertex="1" parent="s3mZJwamYYUPRJ0tXp7X-158">
          <mxGeometry x="270" width="130" height="30" as="geometry">
            <mxRectangle width="130" height="30" as="alternateBounds" />
          </mxGeometry>
        </mxCell>
        <mxCell id="s3mZJwamYYUPRJ0tXp7X-161" value="not null" style="shape=partialRectangle;html=1;whiteSpace=wrap;connectable=0;fillColor=none;top=0;left=0;bottom=0;right=0;align=left;spacingLeft=6;overflow=hidden;strokeColor=inherit;fontSize=16;" vertex="1" parent="s3mZJwamYYUPRJ0tXp7X-158">
          <mxGeometry x="400" width="240" height="30" as="geometry">
            <mxRectangle width="240" height="30" as="alternateBounds" />
          </mxGeometry>
        </mxCell>
        <mxCell id="s3mZJwamYYUPRJ0tXp7X-162" style="shape=tableRow;horizontal=0;startSize=0;swimlaneHead=0;swimlaneBody=0;top=0;left=0;bottom=0;right=0;collapsible=0;dropTarget=0;fillColor=none;points=[[0,0.5],[1,0.5]];portConstraint=eastwest;strokeColor=inherit;fontSize=16;" vertex="1" parent="axmBf0sNK8sAseNuWQ9q-1">
          <mxGeometry y="240" width="640" height="30" as="geometry" />
        </mxCell>
        <mxCell id="s3mZJwamYYUPRJ0tXp7X-163" value="winner_tg_id" style="shape=partialRectangle;html=1;whiteSpace=wrap;connectable=0;fillColor=none;top=0;left=0;bottom=0;right=0;overflow=hidden;strokeColor=inherit;fontSize=16;" vertex="1" parent="s3mZJwamYYUPRJ0tXp7X-162">
          <mxGeometry width="270" height="30" as="geometry">
            <mxRectangle width="270" height="30" as="alternateBounds" />
          </mxGeometry>
        </mxCell>
        <mxCell id="s3mZJwamYYUPRJ0tXp7X-164" value="BIGINT" style="shape=partialRectangle;html=1;whiteSpace=wrap;connectable=0;fillColor=none;top=0;left=0;bottom=0;right=0;align=left;spacingLeft=6;overflow=hidden;strokeColor=inherit;fontSize=16;" vertex="1" parent="s3mZJwamYYUPRJ0tXp7X-162">
          <mxGeometry x="270" width="130" height="30" as="geometry">
            <mxRectangle width="130" height="30" as="alternateBounds" />
          </mxGeometry>
        </mxCell>
        <mxCell id="s3mZJwamYYUPRJ0tXp7X-165" style="shape=partialRectangle;html=1;whiteSpace=wrap;connectable=0;fillColor=none;top=0;left=0;bottom=0;right=0;align=left;spacingLeft=6;overflow=hidden;strokeColor=inherit;fontSize=16;" vertex="1" parent="s3mZJwamYYUPRJ0tXp7X-162">
          <mxGeometry x="400" width="240" height="30" as="geometry">
            <mxRectangle width="240" height="30" as="alternateBounds" />
          </mxGeometry>
        </mxCell>
        <mxCell id="s3mZJwamYYUPRJ0tXp7X-136" style="shape=tableRow;horizontal=0;startSize=0;swimlaneHead=0;swimlaneBody=0;top=0;left=0;bottom=0;right=0;collapsible=0;dropTarget=0;fillColor=none;points=[[0,0.5],[1,0.5]];portConstraint=eastwest;strokeColor=inherit;fontSize=16;" vertex="1" parent="axmBf0sNK8sAseNuWQ9q-1">
          <mxGeometry y="270" width="640" height="30" as="geometry" />
        </mxCell>
        <mxCell id="s3mZJwamYYUPRJ0tXp7X-137" value="answered_themes" style="shape=partialRectangle;html=1;whiteSpace=wrap;connectable=0;fillColor=none;top=0;left=0;bottom=0;right=0;overflow=hidden;strokeColor=inherit;fontSize=16;" vertex="1" parent="s3mZJwamYYUPRJ0tXp7X-136">
          <mxGeometry width="270" height="30" as="geometry">
            <mxRectangle width="270" height="30" as="alternateBounds" />
          </mxGeometry>
        </mxCell>
        <mxCell id="s3mZJwamYYUPRJ0tXp7X-138" style="shape=partialRectangle;html=1;whiteSpace=wrap;connectable=0;fillColor=none;top=0;left=0;bottom=0;right=0;align=left;spacingLeft=6;overflow=hidden;strokeColor=inherit;fontSize=16;" vertex="1" parent="s3mZJwamYYUPRJ0tXp7X-136">
          <mxGeometry x="270" width="130" height="30" as="geometry">
            <mxRectangle width="130" height="30" as="alternateBounds" />
          </mxGeometry>
        </mxCell>
        <mxCell id="s3mZJwamYYUPRJ0tXp7X-139" style="shape=partialRectangle;html=1;whiteSpace=wrap;connectable=0;fillColor=none;top=0;left=0;bottom=0;right=0;align=left;spacingLeft=6;overflow=hidden;strokeColor=inherit;fontSize=16;" vertex="1" parent="s3mZJwamYYUPRJ0tXp7X-136">
          <mxGeometry x="400" width="240" height="30" as="geometry">
            <mxRectangle width="240" height="30" as="alternateBounds" />
          </mxGeometry>
        </mxCell>
        <mxCell id="s3mZJwamYYUPRJ0tXp7X-131" style="shape=tableRow;horizontal=0;startSize=0;swimlaneHead=0;swimlaneBody=0;top=0;left=0;bottom=0;right=0;collapsible=0;dropTarget=0;fillColor=none;points=[[0,0.5],[1,0.5]];portConstraint=eastwest;strokeColor=inherit;fontSize=16;" vertex="1" parent="axmBf0sNK8sAseNuWQ9q-1">
          <mxGeometry y="300" width="640" height="30" as="geometry" />
        </mxCell>
        <mxCell id="s3mZJwamYYUPRJ0tXp7X-132" value="answered_questions" style="shape=partialRectangle;html=1;whiteSpace=wrap;connectable=0;fillColor=none;top=0;left=0;bottom=0;right=0;overflow=hidden;strokeColor=inherit;fontSize=16;" vertex="1" parent="s3mZJwamYYUPRJ0tXp7X-131">
          <mxGeometry width="270" height="30" as="geometry">
            <mxRectangle width="270" height="30" as="alternateBounds" />
          </mxGeometry>
        </mxCell>
        <mxCell id="s3mZJwamYYUPRJ0tXp7X-133" style="shape=partialRectangle;html=1;whiteSpace=wrap;connectable=0;fillColor=none;top=0;left=0;bottom=0;right=0;align=left;spacingLeft=6;overflow=hidden;strokeColor=inherit;fontSize=16;" vertex="1" parent="s3mZJwamYYUPRJ0tXp7X-131">
          <mxGeometry x="270" width="130" height="30" as="geometry">
            <mxRectangle width="130" height="30" as="alternateBounds" />
          </mxGeometry>
        </mxCell>
        <mxCell id="s3mZJwamYYUPRJ0tXp7X-134" style="shape=partialRectangle;html=1;whiteSpace=wrap;connectable=0;fillColor=none;top=0;left=0;bottom=0;right=0;align=left;spacingLeft=6;overflow=hidden;strokeColor=inherit;fontSize=16;" vertex="1" parent="s3mZJwamYYUPRJ0tXp7X-131">
          <mxGeometry x="400" width="240" height="30" as="geometry">
            <mxRectangle width="240" height="30" as="alternateBounds" />
          </mxGeometry>
        </mxCell>
        <mxCell id="s3mZJwamYYUPRJ0tXp7X-84" style="shape=tableRow;horizontal=0;startSize=0;swimlaneHead=0;swimlaneBody=0;top=0;left=0;bottom=0;right=0;collapsible=0;dropTarget=0;fillColor=none;points=[[0,0.5],[1,0.5]];portConstraint=eastwest;strokeColor=inherit;fontSize=16;" vertex="1" parent="axmBf0sNK8sAseNuWQ9q-1">
          <mxGeometry y="330" width="640" height="30" as="geometry" />
        </mxCell>
        <mxCell id="s3mZJwamYYUPRJ0tXp7X-85" value="playable_themes" style="shape=partialRectangle;html=1;whiteSpace=wrap;connectable=0;fillColor=none;top=0;left=0;bottom=0;right=0;overflow=hidden;strokeColor=inherit;fontSize=16;" vertex="1" parent="s3mZJwamYYUPRJ0tXp7X-84">
          <mxGeometry width="270" height="30" as="geometry">
            <mxRectangle width="270" height="30" as="alternateBounds" />
          </mxGeometry>
        </mxCell>
        <mxCell id="s3mZJwamYYUPRJ0tXp7X-86" style="shape=partialRectangle;html=1;whiteSpace=wrap;connectable=0;fillColor=none;top=0;left=0;bottom=0;right=0;align=left;spacingLeft=6;overflow=hidden;strokeColor=inherit;fontSize=16;" vertex="1" parent="s3mZJwamYYUPRJ0tXp7X-84">
          <mxGeometry x="270" width="130" height="30" as="geometry">
            <mxRectangle width="130" height="30" as="alternateBounds" />
          </mxGeometry>
        </mxCell>
        <mxCell id="s3mZJwamYYUPRJ0tXp7X-87" style="shape=partialRectangle;html=1;whiteSpace=wrap;connectable=0;fillColor=none;top=0;left=0;bottom=0;right=0;align=left;spacingLeft=6;overflow=hidden;strokeColor=inherit;fontSize=16;" vertex="1" parent="s3mZJwamYYUPRJ0tXp7X-84">
          <mxGeometry x="400" width="240" height="30" as="geometry">
            <mxRectangle width="240" height="30" as="alternateBounds" />
          </mxGeometry>
        </mxCell>
        <mxCell id="s3mZJwamYYUPRJ0tXp7X-88" style="shape=tableRow;horizontal=0;startSize=0;swimlaneHead=0;swimlaneBody=0;top=0;left=0;bottom=0;right=0;collapsible=0;dropTarget=0;fillColor=none;points=[[0,0.5],[1,0.5]];portConstraint=eastwest;strokeColor=inherit;fontSize=16;" vertex="1" parent="axmBf0sNK8sAseNuWQ9q-1">
          <mxGeometry y="360" width="640" height="30" as="geometry" />
        </mxCell>
        <mxCell id="s3mZJwamYYUPRJ0tXp7X-89" value="playable_questions" style="shape=partialRectangle;html=1;whiteSpace=wrap;connectable=0;fillColor=none;top=0;left=0;bottom=0;right=0;overflow=hidden;strokeColor=inherit;fontSize=16;" vertex="1" parent="s3mZJwamYYUPRJ0tXp7X-88">
          <mxGeometry width="270" height="30" as="geometry">
            <mxRectangle width="270" height="30" as="alternateBounds" />
          </mxGeometry>
        </mxCell>
        <mxCell id="s3mZJwamYYUPRJ0tXp7X-90" style="shape=partialRectangle;html=1;whiteSpace=wrap;connectable=0;fillColor=none;top=0;left=0;bottom=0;right=0;align=left;spacingLeft=6;overflow=hidden;strokeColor=inherit;fontSize=16;" vertex="1" parent="s3mZJwamYYUPRJ0tXp7X-88">
          <mxGeometry x="270" width="130" height="30" as="geometry">
            <mxRectangle width="130" height="30" as="alternateBounds" />
          </mxGeometry>
        </mxCell>
        <mxCell id="s3mZJwamYYUPRJ0tXp7X-91" style="shape=partialRectangle;html=1;whiteSpace=wrap;connectable=0;fillColor=none;top=0;left=0;bottom=0;right=0;align=left;spacingLeft=6;overflow=hidden;strokeColor=inherit;fontSize=16;" vertex="1" parent="s3mZJwamYYUPRJ0tXp7X-88">
          <mxGeometry x="400" width="240" height="30" as="geometry">
            <mxRectangle width="240" height="30" as="alternateBounds" />
          </mxGeometry>
        </mxCell>
        <mxCell id="axmBf0sNK8sAseNuWQ9q-27" value="game_scores" style="shape=table;startSize=30;container=1;collapsible=0;childLayout=tableLayout;fixedRows=1;rowLines=1;fontStyle=0;strokeColor=default;fontSize=16;" parent="1" vertex="1">
          <mxGeometry x="1500" y="540" width="470" height="150" as="geometry" />
        </mxCell>
        <mxCell id="axmBf0sNK8sAseNuWQ9q-28" value="" style="shape=tableRow;horizontal=0;startSize=0;swimlaneHead=0;swimlaneBody=0;top=0;left=0;bottom=0;right=0;collapsible=0;dropTarget=0;fillColor=none;points=[[0,0.5],[1,0.5]];portConstraint=eastwest;strokeColor=inherit;fontSize=16;" parent="axmBf0sNK8sAseNuWQ9q-27" vertex="1">
          <mxGeometry y="30" width="470" height="30" as="geometry" />
        </mxCell>
        <mxCell id="axmBf0sNK8sAseNuWQ9q-29" value="id&lt;span style=&quot;box-sizing: border-box; color: rgb(173, 186, 199); font-family: ui-monospace, SFMono-Regular, &amp;quot;SF Mono&amp;quot;, Menlo, Consolas, &amp;quot;Liberation Mono&amp;quot;, monospace; font-size: 12px; text-align: start; background-color: rgb(34, 39, 46);&quot; class=&quot;pl-s1&quot;&gt;&lt;/span&gt;&lt;span style=&quot;color: rgb(173, 186, 199); font-family: ui-monospace, SFMono-Regular, &amp;quot;SF Mono&amp;quot;, Menlo, Consolas, &amp;quot;Liberation Mono&amp;quot;, monospace; font-size: 12px; text-align: start; background-color: rgb(34, 39, 46);&quot;&gt;&lt;/span&gt;&lt;span style=&quot;box-sizing: border-box; color: rgb(173, 186, 199); font-family: ui-monospace, SFMono-Regular, &amp;quot;SF Mono&amp;quot;, Menlo, Consolas, &amp;quot;Liberation Mono&amp;quot;, monospace; font-size: 12px; text-align: start; background-color: rgb(34, 39, 46);&quot; class=&quot;pl-s1&quot;&gt;&lt;/span&gt;&lt;span style=&quot;color: rgb(173, 186, 199); font-family: ui-monospace, SFMono-Regular, &amp;quot;SF Mono&amp;quot;, Menlo, Consolas, &amp;quot;Liberation Mono&amp;quot;, monospace; font-size: 12px; text-align: start; background-color: rgb(34, 39, 46);&quot;&gt;&lt;/span&gt;" style="shape=partialRectangle;html=1;whiteSpace=wrap;connectable=0;fillColor=none;top=0;left=0;bottom=0;right=0;overflow=hidden;pointerEvents=1;strokeColor=inherit;fontSize=16;" parent="axmBf0sNK8sAseNuWQ9q-28" vertex="1">
          <mxGeometry width="110" height="30" as="geometry">
            <mxRectangle width="110" height="30" as="alternateBounds" />
          </mxGeometry>
        </mxCell>
        <mxCell id="axmBf0sNK8sAseNuWQ9q-30" value="INTEGER" style="shape=partialRectangle;html=1;whiteSpace=wrap;connectable=0;fillColor=none;top=0;left=0;bottom=0;right=0;align=left;spacingLeft=6;overflow=hidden;strokeColor=inherit;fontSize=16;" parent="axmBf0sNK8sAseNuWQ9q-28" vertex="1">
          <mxGeometry x="110" width="120" height="30" as="geometry">
            <mxRectangle width="120" height="30" as="alternateBounds" />
          </mxGeometry>
        </mxCell>
        <mxCell id="axmBf0sNK8sAseNuWQ9q-37" value="primary_key, autoincrement" style="shape=partialRectangle;html=1;whiteSpace=wrap;connectable=0;fillColor=none;top=0;left=0;bottom=0;right=0;align=left;spacingLeft=6;overflow=hidden;strokeColor=inherit;fontSize=16;" parent="axmBf0sNK8sAseNuWQ9q-28" vertex="1">
          <mxGeometry x="230" width="240" height="30" as="geometry">
            <mxRectangle width="240" height="30" as="alternateBounds" />
          </mxGeometry>
        </mxCell>
        <mxCell id="axmBf0sNK8sAseNuWQ9q-31" value="" style="shape=tableRow;horizontal=0;startSize=0;swimlaneHead=0;swimlaneBody=0;top=0;left=0;bottom=0;right=0;collapsible=0;dropTarget=0;fillColor=none;points=[[0,0.5],[1,0.5]];portConstraint=eastwest;strokeColor=inherit;fontSize=16;" parent="axmBf0sNK8sAseNuWQ9q-27" vertex="1">
          <mxGeometry y="60" width="470" height="30" as="geometry" />
        </mxCell>
        <mxCell id="axmBf0sNK8sAseNuWQ9q-32" value="&lt;span style=&quot;box-sizing: border-box; color: rgb(173, 186, 199); font-family: ui-monospace, SFMono-Regular, &amp;quot;SF Mono&amp;quot;, Menlo, Consolas, &amp;quot;Liberation Mono&amp;quot;, monospace; font-size: 12px; text-align: start; background-color: rgb(34, 39, 46);&quot; class=&quot;pl-s1&quot;&gt;&lt;/span&gt;&lt;span style=&quot;color: rgb(173, 186, 199); font-family: ui-monospace, SFMono-Regular, &amp;quot;SF Mono&amp;quot;, Menlo, Consolas, &amp;quot;Liberation Mono&amp;quot;, monospace; font-size: 12px; text-align: start; background-color: rgb(34, 39, 46);&quot;&gt;&lt;/span&gt;&lt;span style=&quot;box-sizing: border-box; color: rgb(173, 186, 199); font-family: ui-monospace, SFMono-Regular, &amp;quot;SF Mono&amp;quot;, Menlo, Consolas, &amp;quot;Liberation Mono&amp;quot;, monospace; font-size: 12px; text-align: start; background-color: rgb(34, 39, 46);&quot; class=&quot;pl-s1&quot;&gt;&lt;/span&gt;&lt;span style=&quot;color: rgb(173, 186, 199); font-family: ui-monospace, SFMono-Regular, &amp;quot;SF Mono&amp;quot;, Menlo, Consolas, &amp;quot;Liberation Mono&amp;quot;, monospace; font-size: 12px; text-align: start; background-color: rgb(34, 39, 46);&quot;&gt;&lt;/span&gt;&lt;span style=&quot;box-sizing: border-box; color: rgb(173, 186, 199); font-family: ui-monospace, SFMono-Regular, &amp;quot;SF Mono&amp;quot;, Menlo, Consolas, &amp;quot;Liberation Mono&amp;quot;, monospace; font-size: 12px; text-align: start; background-color: rgb(34, 39, 46);&quot; class=&quot;pl-s1&quot;&gt;&lt;/span&gt;&lt;span style=&quot;color: rgb(173, 186, 199); font-family: ui-monospace, SFMono-Regular, &amp;quot;SF Mono&amp;quot;, Menlo, Consolas, &amp;quot;Liberation Mono&amp;quot;, monospace; font-size: 12px; text-align: start; background-color: rgb(34, 39, 46);&quot;&gt;&lt;/span&gt;&lt;span style=&quot;box-sizing: border-box; color: rgb(173, 186, 199); font-family: ui-monospace, SFMono-Regular, &amp;quot;SF Mono&amp;quot;, Menlo, Consolas, &amp;quot;Liberation Mono&amp;quot;, monospace; font-size: 12px; text-align: start; background-color: rgb(34, 39, 46);&quot; class=&quot;pl-s1&quot;&gt;&lt;/span&gt;&lt;span style=&quot;color: rgb(173, 186, 199); font-family: ui-monospace, SFMono-Regular, &amp;quot;SF Mono&amp;quot;, Menlo, Consolas, &amp;quot;Liberation Mono&amp;quot;, monospace; font-size: 12px; text-align: start; background-color: rgb(34, 39, 46);&quot;&gt;&lt;/span&gt;&lt;span style=&quot;box-sizing: border-box; color: rgb(173, 186, 199); font-family: ui-monospace, SFMono-Regular, &amp;quot;SF Mono&amp;quot;, Menlo, Consolas, &amp;quot;Liberation Mono&amp;quot;, monospace; font-size: 12px; text-align: start; background-color: rgb(34, 39, 46);&quot; class=&quot;pl-s1&quot;&gt;&lt;/span&gt;&lt;span style=&quot;color: rgb(173, 186, 199); font-family: ui-monospace, SFMono-Regular, &amp;quot;SF Mono&amp;quot;, Menlo, Consolas, &amp;quot;Liberation Mono&amp;quot;, monospace; font-size: 12px; text-align: start; background-color: rgb(34, 39, 46);&quot;&gt;&lt;/span&gt;&lt;span style=&quot;box-sizing: border-box; color: rgb(173, 186, 199); font-family: ui-monospace, SFMono-Regular, &amp;quot;SF Mono&amp;quot;, Menlo, Consolas, &amp;quot;Liberation Mono&amp;quot;, monospace; font-size: 12px; text-align: start; background-color: rgb(34, 39, 46);&quot; class=&quot;pl-s1&quot;&gt;&lt;/span&gt;&lt;span style=&quot;color: rgb(173, 186, 199); font-family: ui-monospace, SFMono-Regular, &amp;quot;SF Mono&amp;quot;, Menlo, Consolas, &amp;quot;Liberation Mono&amp;quot;, monospace; font-size: 12px; text-align: start; background-color: rgb(34, 39, 46);&quot;&gt;&lt;/span&gt;&lt;span style=&quot;box-sizing: border-box; color: rgb(173, 186, 199); font-family: ui-monospace, SFMono-Regular, &amp;quot;SF Mono&amp;quot;, Menlo, Consolas, &amp;quot;Liberation Mono&amp;quot;, monospace; font-size: 12px; text-align: start; background-color: rgb(34, 39, 46);&quot; class=&quot;pl-s1&quot;&gt;&lt;/span&gt;&lt;span style=&quot;color: rgb(173, 186, 199); font-family: ui-monospace, SFMono-Regular, &amp;quot;SF Mono&amp;quot;, Menlo, Consolas, &amp;quot;Liberation Mono&amp;quot;, monospace; font-size: 12px; text-align: start; background-color: rgb(34, 39, 46);&quot;&gt;&lt;/span&gt;&lt;span style=&quot;box-sizing: border-box; color: rgb(173, 186, 199); font-family: ui-monospace, SFMono-Regular, &amp;quot;SF Mono&amp;quot;, Menlo, Consolas, &amp;quot;Liberation Mono&amp;quot;, monospace; font-size: 12px; text-align: start; background-color: rgb(34, 39, 46);&quot; class=&quot;pl-s1&quot;&gt;&lt;/span&gt;&lt;span style=&quot;color: rgb(173, 186, 199); font-family: ui-monospace, SFMono-Regular, &amp;quot;SF Mono&amp;quot;, Menlo, Consolas, &amp;quot;Liberation Mono&amp;quot;, monospace; font-size: 12px; text-align: start; background-color: rgb(34, 39, 46);&quot;&gt;&lt;/span&gt;game_id" style="shape=partialRectangle;html=1;whiteSpace=wrap;connectable=0;fillColor=none;top=0;left=0;bottom=0;right=0;overflow=hidden;strokeColor=inherit;fontSize=16;" parent="axmBf0sNK8sAseNuWQ9q-31" vertex="1">
          <mxGeometry width="110" height="30" as="geometry">
            <mxRectangle width="110" height="30" as="alternateBounds" />
          </mxGeometry>
        </mxCell>
        <mxCell id="axmBf0sNK8sAseNuWQ9q-33" value="BIGINT" style="shape=partialRectangle;html=1;whiteSpace=wrap;connectable=0;fillColor=none;top=0;left=0;bottom=0;right=0;align=left;spacingLeft=6;overflow=hidden;strokeColor=inherit;fontSize=16;" parent="axmBf0sNK8sAseNuWQ9q-31" vertex="1">
          <mxGeometry x="110" width="120" height="30" as="geometry">
            <mxRectangle width="120" height="30" as="alternateBounds" />
          </mxGeometry>
        </mxCell>
        <mxCell id="axmBf0sNK8sAseNuWQ9q-38" value="ForeignKey (game.id)" style="shape=partialRectangle;html=1;whiteSpace=wrap;connectable=0;fillColor=none;top=0;left=0;bottom=0;right=0;align=left;spacingLeft=6;overflow=hidden;strokeColor=inherit;fontSize=16;" parent="axmBf0sNK8sAseNuWQ9q-31" vertex="1">
          <mxGeometry x="230" width="240" height="30" as="geometry">
            <mxRectangle width="240" height="30" as="alternateBounds" />
          </mxGeometry>
        </mxCell>
        <mxCell id="axmBf0sNK8sAseNuWQ9q-34" value="" style="shape=tableRow;horizontal=0;startSize=0;swimlaneHead=0;swimlaneBody=0;top=0;left=0;bottom=0;right=0;collapsible=0;dropTarget=0;fillColor=none;points=[[0,0.5],[1,0.5]];portConstraint=eastwest;strokeColor=inherit;fontSize=16;" parent="axmBf0sNK8sAseNuWQ9q-27" vertex="1">
          <mxGeometry y="90" width="470" height="30" as="geometry" />
        </mxCell>
        <mxCell id="axmBf0sNK8sAseNuWQ9q-35" value="player_id&lt;span style=&quot;color: rgb(173, 186, 199); font-family: ui-monospace, SFMono-Regular, &amp;quot;SF Mono&amp;quot;, Menlo, Consolas, &amp;quot;Liberation Mono&amp;quot;, monospace; font-size: 12px; text-align: start; background-color: rgb(34, 39, 46);&quot;&gt;&lt;/span&gt;" style="shape=partialRectangle;html=1;whiteSpace=wrap;connectable=0;fillColor=none;top=0;left=0;bottom=0;right=0;overflow=hidden;strokeColor=inherit;fontSize=16;" parent="axmBf0sNK8sAseNuWQ9q-34" vertex="1">
          <mxGeometry width="110" height="30" as="geometry">
            <mxRectangle width="110" height="30" as="alternateBounds" />
          </mxGeometry>
        </mxCell>
        <mxCell id="axmBf0sNK8sAseNuWQ9q-36" value="BIGINT" style="shape=partialRectangle;html=1;whiteSpace=wrap;connectable=0;fillColor=none;top=0;left=0;bottom=0;right=0;align=left;spacingLeft=6;overflow=hidden;strokeColor=inherit;fontSize=16;" parent="axmBf0sNK8sAseNuWQ9q-34" vertex="1">
          <mxGeometry x="110" width="120" height="30" as="geometry">
            <mxRectangle width="120" height="30" as="alternateBounds" />
          </mxGeometry>
        </mxCell>
        <mxCell id="axmBf0sNK8sAseNuWQ9q-39" value="ForeignKey (player.id)" style="shape=partialRectangle;html=1;whiteSpace=wrap;connectable=0;fillColor=none;top=0;left=0;bottom=0;right=0;align=left;spacingLeft=6;overflow=hidden;strokeColor=inherit;fontSize=16;" parent="axmBf0sNK8sAseNuWQ9q-34" vertex="1">
          <mxGeometry x="230" width="240" height="30" as="geometry">
            <mxRectangle width="240" height="30" as="alternateBounds" />
          </mxGeometry>
        </mxCell>
        <mxCell id="axmBf0sNK8sAseNuWQ9q-40" style="shape=tableRow;horizontal=0;startSize=0;swimlaneHead=0;swimlaneBody=0;top=0;left=0;bottom=0;right=0;collapsible=0;dropTarget=0;fillColor=none;points=[[0,0.5],[1,0.5]];portConstraint=eastwest;strokeColor=inherit;fontSize=16;" parent="axmBf0sNK8sAseNuWQ9q-27" vertex="1">
          <mxGeometry y="120" width="470" height="30" as="geometry" />
        </mxCell>
        <mxCell id="axmBf0sNK8sAseNuWQ9q-41" value="points&lt;span style=&quot;box-sizing: border-box; color: rgb(173, 186, 199); font-family: ui-monospace, SFMono-Regular, &amp;quot;SF Mono&amp;quot;, Menlo, Consolas, &amp;quot;Liberation Mono&amp;quot;, monospace; font-size: 12px; text-align: start; background-color: rgb(34, 39, 46);&quot; class=&quot;pl-s1&quot;&gt;&lt;/span&gt;&lt;span style=&quot;color: rgb(173, 186, 199); font-family: ui-monospace, SFMono-Regular, &amp;quot;SF Mono&amp;quot;, Menlo, Consolas, &amp;quot;Liberation Mono&amp;quot;, monospace; font-size: 12px; text-align: start; background-color: rgb(34, 39, 46);&quot;&gt;&lt;/span&gt;&lt;span style=&quot;box-sizing: border-box; color: rgb(173, 186, 199); font-family: ui-monospace, SFMono-Regular, &amp;quot;SF Mono&amp;quot;, Menlo, Consolas, &amp;quot;Liberation Mono&amp;quot;, monospace; font-size: 12px; text-align: start; background-color: rgb(34, 39, 46);&quot; class=&quot;pl-s1&quot;&gt;&lt;/span&gt;&lt;span style=&quot;color: rgb(173, 186, 199); font-family: ui-monospace, SFMono-Regular, &amp;quot;SF Mono&amp;quot;, Menlo, Consolas, &amp;quot;Liberation Mono&amp;quot;, monospace; font-size: 12px; text-align: start; background-color: rgb(34, 39, 46);&quot;&gt;&lt;/span&gt;&lt;span style=&quot;box-sizing: border-box; color: rgb(173, 186, 199); font-family: ui-monospace, SFMono-Regular, &amp;quot;SF Mono&amp;quot;, Menlo, Consolas, &amp;quot;Liberation Mono&amp;quot;, monospace; font-size: 12px; text-align: start; background-color: rgb(34, 39, 46);&quot; class=&quot;pl-s1&quot;&gt;&lt;/span&gt;&lt;span style=&quot;color: rgb(173, 186, 199); font-family: ui-monospace, SFMono-Regular, &amp;quot;SF Mono&amp;quot;, Menlo, Consolas, &amp;quot;Liberation Mono&amp;quot;, monospace; font-size: 12px; text-align: start; background-color: rgb(34, 39, 46);&quot;&gt;&lt;/span&gt;&lt;span style=&quot;box-sizing: border-box; color: rgb(173, 186, 199); font-family: ui-monospace, SFMono-Regular, &amp;quot;SF Mono&amp;quot;, Menlo, Consolas, &amp;quot;Liberation Mono&amp;quot;, monospace; font-size: 12px; text-align: start; background-color: rgb(34, 39, 46);&quot; class=&quot;pl-s1&quot;&gt;&lt;/span&gt;&lt;span style=&quot;color: rgb(173, 186, 199); font-family: ui-monospace, SFMono-Regular, &amp;quot;SF Mono&amp;quot;, Menlo, Consolas, &amp;quot;Liberation Mono&amp;quot;, monospace; font-size: 12px; text-align: start; background-color: rgb(34, 39, 46);&quot;&gt;&lt;/span&gt;&lt;span style=&quot;box-sizing: border-box; color: rgb(173, 186, 199); font-family: ui-monospace, SFMono-Regular, &amp;quot;SF Mono&amp;quot;, Menlo, Consolas, &amp;quot;Liberation Mono&amp;quot;, monospace; font-size: 12px; text-align: start; background-color: rgb(34, 39, 46);&quot; class=&quot;pl-s1&quot;&gt;&lt;/span&gt;&lt;span style=&quot;color: rgb(173, 186, 199); font-family: ui-monospace, SFMono-Regular, &amp;quot;SF Mono&amp;quot;, Menlo, Consolas, &amp;quot;Liberation Mono&amp;quot;, monospace; font-size: 12px; text-align: start; background-color: rgb(34, 39, 46);&quot;&gt;&lt;/span&gt;&lt;span style=&quot;box-sizing: border-box; color: rgb(173, 186, 199); font-family: ui-monospace, SFMono-Regular, &amp;quot;SF Mono&amp;quot;, Menlo, Consolas, &amp;quot;Liberation Mono&amp;quot;, monospace; font-size: 12px; text-align: start; background-color: rgb(34, 39, 46);&quot; class=&quot;pl-s1&quot;&gt;&lt;/span&gt;&lt;span style=&quot;color: rgb(173, 186, 199); font-family: ui-monospace, SFMono-Regular, &amp;quot;SF Mono&amp;quot;, Menlo, Consolas, &amp;quot;Liberation Mono&amp;quot;, monospace; font-size: 12px; text-align: start; background-color: rgb(34, 39, 46);&quot;&gt;&lt;/span&gt;&lt;span style=&quot;box-sizing: border-box; color: rgb(173, 186, 199); font-family: ui-monospace, SFMono-Regular, &amp;quot;SF Mono&amp;quot;, Menlo, Consolas, &amp;quot;Liberation Mono&amp;quot;, monospace; font-size: 12px; text-align: start; background-color: rgb(34, 39, 46);&quot; class=&quot;pl-s1&quot;&gt;&lt;/span&gt;&lt;span style=&quot;color: rgb(173, 186, 199); font-family: ui-monospace, SFMono-Regular, &amp;quot;SF Mono&amp;quot;, Menlo, Consolas, &amp;quot;Liberation Mono&amp;quot;, monospace; font-size: 12px; text-align: start; background-color: rgb(34, 39, 46);&quot;&gt;&lt;/span&gt;&lt;span style=&quot;box-sizing: border-box; color: rgb(173, 186, 199); font-family: ui-monospace, SFMono-Regular, &amp;quot;SF Mono&amp;quot;, Menlo, Consolas, &amp;quot;Liberation Mono&amp;quot;, monospace; font-size: 12px; text-align: start; background-color: rgb(34, 39, 46);&quot; class=&quot;pl-s1&quot;&gt;&lt;/span&gt;&lt;span style=&quot;color: rgb(173, 186, 199); font-family: ui-monospace, SFMono-Regular, &amp;quot;SF Mono&amp;quot;, Menlo, Consolas, &amp;quot;Liberation Mono&amp;quot;, monospace; font-size: 12px; text-align: start; background-color: rgb(34, 39, 46);&quot;&gt;&lt;/span&gt;&lt;span style=&quot;box-sizing: border-box; color: rgb(173, 186, 199); font-family: ui-monospace, SFMono-Regular, &amp;quot;SF Mono&amp;quot;, Menlo, Consolas, &amp;quot;Liberation Mono&amp;quot;, monospace; font-size: 12px; text-align: start; background-color: rgb(34, 39, 46);&quot; class=&quot;pl-s1&quot;&gt;&lt;/span&gt;&lt;span style=&quot;color: rgb(173, 186, 199); font-family: ui-monospace, SFMono-Regular, &amp;quot;SF Mono&amp;quot;, Menlo, Consolas, &amp;quot;Liberation Mono&amp;quot;, monospace; font-size: 12px; text-align: start; background-color: rgb(34, 39, 46);&quot;&gt;&lt;/span&gt;&lt;span style=&quot;box-sizing: border-box; color: rgb(173, 186, 199); font-family: ui-monospace, SFMono-Regular, &amp;quot;SF Mono&amp;quot;, Menlo, Consolas, &amp;quot;Liberation Mono&amp;quot;, monospace; font-size: 12px; text-align: start; background-color: rgb(34, 39, 46);&quot; class=&quot;pl-s1&quot;&gt;&lt;/span&gt;&lt;span style=&quot;color: rgb(173, 186, 199); font-family: ui-monospace, SFMono-Regular, &amp;quot;SF Mono&amp;quot;, Menlo, Consolas, &amp;quot;Liberation Mono&amp;quot;, monospace; font-size: 12px; text-align: start; background-color: rgb(34, 39, 46);&quot;&gt;&lt;/span&gt;&lt;span style=&quot;box-sizing: border-box; color: rgb(173, 186, 199); font-family: ui-monospace, SFMono-Regular, &amp;quot;SF Mono&amp;quot;, Menlo, Consolas, &amp;quot;Liberation Mono&amp;quot;, monospace; font-size: 12px; text-align: start; background-color: rgb(34, 39, 46);&quot; class=&quot;pl-s1&quot;&gt;&lt;/span&gt;&lt;span style=&quot;color: rgb(173, 186, 199); font-family: ui-monospace, SFMono-Regular, &amp;quot;SF Mono&amp;quot;, Menlo, Consolas, &amp;quot;Liberation Mono&amp;quot;, monospace; font-size: 12px; text-align: start; background-color: rgb(34, 39, 46);&quot;&gt;&lt;/span&gt;&lt;span style=&quot;box-sizing: border-box; color: rgb(173, 186, 199); font-family: ui-monospace, SFMono-Regular, &amp;quot;SF Mono&amp;quot;, Menlo, Consolas, &amp;quot;Liberation Mono&amp;quot;, monospace; font-size: 12px; text-align: start; background-color: rgb(34, 39, 46);&quot; class=&quot;pl-s1&quot;&gt;&lt;/span&gt;&lt;span style=&quot;color: rgb(173, 186, 199); font-family: ui-monospace, SFMono-Regular, &amp;quot;SF Mono&amp;quot;, Menlo, Consolas, &amp;quot;Liberation Mono&amp;quot;, monospace; font-size: 12px; text-align: start; background-color: rgb(34, 39, 46);&quot;&gt;&lt;/span&gt;&lt;span style=&quot;box-sizing: border-box; color: rgb(173, 186, 199); font-family: ui-monospace, SFMono-Regular, &amp;quot;SF Mono&amp;quot;, Menlo, Consolas, &amp;quot;Liberation Mono&amp;quot;, monospace; font-size: 12px; text-align: start; background-color: rgb(34, 39, 46);&quot; class=&quot;pl-s1&quot;&gt;&lt;/span&gt;&lt;span style=&quot;color: rgb(173, 186, 199); font-family: ui-monospace, SFMono-Regular, &amp;quot;SF Mono&amp;quot;, Menlo, Consolas, &amp;quot;Liberation Mono&amp;quot;, monospace; font-size: 12px; text-align: start; background-color: rgb(34, 39, 46);&quot;&gt;&lt;/span&gt;&lt;span style=&quot;box-sizing: border-box; color: rgb(173, 186, 199); font-family: ui-monospace, SFMono-Regular, &amp;quot;SF Mono&amp;quot;, Menlo, Consolas, &amp;quot;Liberation Mono&amp;quot;, monospace; font-size: 12px; text-align: start; background-color: rgb(34, 39, 46);&quot; class=&quot;pl-s1&quot;&gt;&lt;/span&gt;&lt;span style=&quot;color: rgb(173, 186, 199); font-family: ui-monospace, SFMono-Regular, &amp;quot;SF Mono&amp;quot;, Menlo, Consolas, &amp;quot;Liberation Mono&amp;quot;, monospace; font-size: 12px; text-align: start; background-color: rgb(34, 39, 46);&quot;&gt;&lt;/span&gt;&lt;span style=&quot;box-sizing: border-box; color: rgb(173, 186, 199); font-family: ui-monospace, SFMono-Regular, &amp;quot;SF Mono&amp;quot;, Menlo, Consolas, &amp;quot;Liberation Mono&amp;quot;, monospace; font-size: 12px; text-align: start; background-color: rgb(34, 39, 46);&quot; class=&quot;pl-s1&quot;&gt;&lt;/span&gt;&lt;span style=&quot;color: rgb(173, 186, 199); font-family: ui-monospace, SFMono-Regular, &amp;quot;SF Mono&amp;quot;, Menlo, Consolas, &amp;quot;Liberation Mono&amp;quot;, monospace; font-size: 12px; text-align: start; background-color: rgb(34, 39, 46);&quot;&gt;&lt;/span&gt;&lt;span style=&quot;box-sizing: border-box; color: rgb(173, 186, 199); font-family: ui-monospace, SFMono-Regular, &amp;quot;SF Mono&amp;quot;, Menlo, Consolas, &amp;quot;Liberation Mono&amp;quot;, monospace; font-size: 12px; text-align: start; background-color: rgb(34, 39, 46);&quot; class=&quot;pl-s1&quot;&gt;&lt;/span&gt;&lt;span style=&quot;color: rgb(173, 186, 199); font-family: ui-monospace, SFMono-Regular, &amp;quot;SF Mono&amp;quot;, Menlo, Consolas, &amp;quot;Liberation Mono&amp;quot;, monospace; font-size: 12px; text-align: start; background-color: rgb(34, 39, 46);&quot;&gt;&lt;/span&gt;&lt;span style=&quot;box-sizing: border-box; color: rgb(173, 186, 199); font-family: ui-monospace, SFMono-Regular, &amp;quot;SF Mono&amp;quot;, Menlo, Consolas, &amp;quot;Liberation Mono&amp;quot;, monospace; font-size: 12px; text-align: start; background-color: rgb(34, 39, 46);&quot; class=&quot;pl-s1&quot;&gt;&lt;/span&gt;&lt;span style=&quot;color: rgb(173, 186, 199); font-family: ui-monospace, SFMono-Regular, &amp;quot;SF Mono&amp;quot;, Menlo, Consolas, &amp;quot;Liberation Mono&amp;quot;, monospace; font-size: 12px; text-align: start; background-color: rgb(34, 39, 46);&quot;&gt;&lt;/span&gt;&lt;span style=&quot;box-sizing: border-box; color: rgb(173, 186, 199); font-family: ui-monospace, SFMono-Regular, &amp;quot;SF Mono&amp;quot;, Menlo, Consolas, &amp;quot;Liberation Mono&amp;quot;, monospace; font-size: 12px; text-align: start; background-color: rgb(34, 39, 46);&quot; class=&quot;pl-s1&quot;&gt;&lt;/span&gt;&lt;span style=&quot;color: rgb(173, 186, 199); font-family: ui-monospace, SFMono-Regular, &amp;quot;SF Mono&amp;quot;, Menlo, Consolas, &amp;quot;Liberation Mono&amp;quot;, monospace; font-size: 12px; text-align: start; background-color: rgb(34, 39, 46);&quot;&gt;&lt;/span&gt;&lt;span style=&quot;box-sizing: border-box; color: rgb(173, 186, 199); font-family: ui-monospace, SFMono-Regular, &amp;quot;SF Mono&amp;quot;, Menlo, Consolas, &amp;quot;Liberation Mono&amp;quot;, monospace; font-size: 12px; text-align: start; background-color: rgb(34, 39, 46);&quot; class=&quot;pl-s1&quot;&gt;&lt;/span&gt;&lt;span style=&quot;color: rgb(173, 186, 199); font-family: ui-monospace, SFMono-Regular, &amp;quot;SF Mono&amp;quot;, Menlo, Consolas, &amp;quot;Liberation Mono&amp;quot;, monospace; font-size: 12px; text-align: start; background-color: rgb(34, 39, 46);&quot;&gt;&lt;/span&gt;&lt;span style=&quot;box-sizing: border-box; color: rgb(173, 186, 199); font-family: ui-monospace, SFMono-Regular, &amp;quot;SF Mono&amp;quot;, Menlo, Consolas, &amp;quot;Liberation Mono&amp;quot;, monospace; font-size: 12px; text-align: start; background-color: rgb(34, 39, 46);&quot; class=&quot;pl-s1&quot;&gt;&lt;/span&gt;&lt;span style=&quot;color: rgb(173, 186, 199); font-family: ui-monospace, SFMono-Regular, &amp;quot;SF Mono&amp;quot;, Menlo, Consolas, &amp;quot;Liberation Mono&amp;quot;, monospace; font-size: 12px; text-align: start; background-color: rgb(34, 39, 46);&quot;&gt;&lt;/span&gt;&lt;span style=&quot;box-sizing: border-box; color: rgb(173, 186, 199); font-family: ui-monospace, SFMono-Regular, &amp;quot;SF Mono&amp;quot;, Menlo, Consolas, &amp;quot;Liberation Mono&amp;quot;, monospace; font-size: 12px; text-align: start; background-color: rgb(34, 39, 46);&quot; class=&quot;pl-s1&quot;&gt;&lt;/span&gt;&lt;span style=&quot;color: rgb(173, 186, 199); font-family: ui-monospace, SFMono-Regular, &amp;quot;SF Mono&amp;quot;, Menlo, Consolas, &amp;quot;Liberation Mono&amp;quot;, monospace; font-size: 12px; text-align: start; background-color: rgb(34, 39, 46);&quot;&gt;&lt;/span&gt;&lt;span style=&quot;box-sizing: border-box; color: rgb(173, 186, 199); font-family: ui-monospace, SFMono-Regular, &amp;quot;SF Mono&amp;quot;, Menlo, Consolas, &amp;quot;Liberation Mono&amp;quot;, monospace; font-size: 12px; text-align: start; background-color: rgb(34, 39, 46);&quot; class=&quot;pl-s1&quot;&gt;&lt;/span&gt;&lt;span style=&quot;color: rgb(173, 186, 199); font-family: ui-monospace, SFMono-Regular, &amp;quot;SF Mono&amp;quot;, Menlo, Consolas, &amp;quot;Liberation Mono&amp;quot;, monospace; font-size: 12px; text-align: start; background-color: rgb(34, 39, 46);&quot;&gt;&lt;/span&gt;" style="shape=partialRectangle;html=1;whiteSpace=wrap;connectable=0;fillColor=none;top=0;left=0;bottom=0;right=0;overflow=hidden;strokeColor=inherit;fontSize=16;" parent="axmBf0sNK8sAseNuWQ9q-40" vertex="1">
          <mxGeometry width="110" height="30" as="geometry">
            <mxRectangle width="110" height="30" as="alternateBounds" />
          </mxGeometry>
        </mxCell>
        <mxCell id="axmBf0sNK8sAseNuWQ9q-42" value="INTEGER" style="shape=partialRectangle;html=1;whiteSpace=wrap;connectable=0;fillColor=none;top=0;left=0;bottom=0;right=0;align=left;spacingLeft=6;overflow=hidden;strokeColor=inherit;fontSize=16;" parent="axmBf0sNK8sAseNuWQ9q-40" vertex="1">
          <mxGeometry x="110" width="120" height="30" as="geometry">
            <mxRectangle width="120" height="30" as="alternateBounds" />
          </mxGeometry>
        </mxCell>
        <mxCell id="axmBf0sNK8sAseNuWQ9q-43" style="shape=partialRectangle;html=1;whiteSpace=wrap;connectable=0;fillColor=none;top=0;left=0;bottom=0;right=0;align=left;spacingLeft=6;overflow=hidden;strokeColor=inherit;fontSize=16;" parent="axmBf0sNK8sAseNuWQ9q-40" vertex="1">
          <mxGeometry x="230" width="240" height="30" as="geometry">
            <mxRectangle width="240" height="30" as="alternateBounds" />
          </mxGeometry>
        </mxCell>
        <mxCell id="axmBf0sNK8sAseNuWQ9q-49" value="players" style="shape=table;startSize=30;container=1;collapsible=0;childLayout=tableLayout;fixedRows=1;rowLines=1;fontStyle=0;strokeColor=default;fontSize=16;" parent="1" vertex="1">
          <mxGeometry x="920" y="380" width="438" height="180" as="geometry" />
        </mxCell>
        <mxCell id="axmBf0sNK8sAseNuWQ9q-50" value="" style="shape=tableRow;horizontal=0;startSize=0;swimlaneHead=0;swimlaneBody=0;top=0;left=0;bottom=0;right=0;collapsible=0;dropTarget=0;fillColor=none;points=[[0,0.5],[1,0.5]];portConstraint=eastwest;strokeColor=inherit;fontSize=16;" parent="axmBf0sNK8sAseNuWQ9q-49" vertex="1">
          <mxGeometry y="30" width="438" height="30" as="geometry" />
        </mxCell>
        <mxCell id="axmBf0sNK8sAseNuWQ9q-51" value="tg_id&lt;span style=&quot;box-sizing: border-box; color: rgb(173, 186, 199); font-family: ui-monospace, SFMono-Regular, &amp;quot;SF Mono&amp;quot;, Menlo, Consolas, &amp;quot;Liberation Mono&amp;quot;, monospace; font-size: 12px; text-align: start; background-color: rgb(34, 39, 46);&quot; class=&quot;pl-s1&quot;&gt;&lt;/span&gt;&lt;span style=&quot;color: rgb(173, 186, 199); font-family: ui-monospace, SFMono-Regular, &amp;quot;SF Mono&amp;quot;, Menlo, Consolas, &amp;quot;Liberation Mono&amp;quot;, monospace; font-size: 12px; text-align: start; background-color: rgb(34, 39, 46);&quot;&gt;&lt;/span&gt;&lt;span style=&quot;box-sizing: border-box; color: rgb(173, 186, 199); font-family: ui-monospace, SFMono-Regular, &amp;quot;SF Mono&amp;quot;, Menlo, Consolas, &amp;quot;Liberation Mono&amp;quot;, monospace; font-size: 12px; text-align: start; background-color: rgb(34, 39, 46);&quot; class=&quot;pl-s1&quot;&gt;&lt;/span&gt;&lt;span style=&quot;color: rgb(173, 186, 199); font-family: ui-monospace, SFMono-Regular, &amp;quot;SF Mono&amp;quot;, Menlo, Consolas, &amp;quot;Liberation Mono&amp;quot;, monospace; font-size: 12px; text-align: start; background-color: rgb(34, 39, 46);&quot;&gt;&lt;/span&gt;" style="shape=partialRectangle;html=1;whiteSpace=wrap;connectable=0;fillColor=none;top=0;left=0;bottom=0;right=0;overflow=hidden;pointerEvents=1;strokeColor=inherit;fontSize=16;" parent="axmBf0sNK8sAseNuWQ9q-50" vertex="1">
          <mxGeometry width="108" height="30" as="geometry">
            <mxRectangle width="108" height="30" as="alternateBounds" />
          </mxGeometry>
        </mxCell>
        <mxCell id="axmBf0sNK8sAseNuWQ9q-52" value="BIGINT" style="shape=partialRectangle;html=1;whiteSpace=wrap;connectable=0;fillColor=none;top=0;left=0;bottom=0;right=0;align=left;spacingLeft=6;overflow=hidden;strokeColor=inherit;fontSize=16;" parent="axmBf0sNK8sAseNuWQ9q-50" vertex="1">
          <mxGeometry x="108" width="110" height="30" as="geometry">
            <mxRectangle width="110" height="30" as="alternateBounds" />
          </mxGeometry>
        </mxCell>
        <mxCell id="axmBf0sNK8sAseNuWQ9q-68" value="primary_key, not null" style="shape=partialRectangle;html=1;whiteSpace=wrap;connectable=0;fillColor=none;top=0;left=0;bottom=0;right=0;align=left;spacingLeft=6;overflow=hidden;strokeColor=inherit;fontSize=16;" parent="axmBf0sNK8sAseNuWQ9q-50" vertex="1">
          <mxGeometry x="218" width="220" height="30" as="geometry">
            <mxRectangle width="220" height="30" as="alternateBounds" />
          </mxGeometry>
        </mxCell>
        <mxCell id="axmBf0sNK8sAseNuWQ9q-53" value="" style="shape=tableRow;horizontal=0;startSize=0;swimlaneHead=0;swimlaneBody=0;top=0;left=0;bottom=0;right=0;collapsible=0;dropTarget=0;fillColor=none;points=[[0,0.5],[1,0.5]];portConstraint=eastwest;strokeColor=inherit;fontSize=16;" parent="axmBf0sNK8sAseNuWQ9q-49" vertex="1">
          <mxGeometry y="60" width="438" height="30" as="geometry" />
        </mxCell>
        <mxCell id="axmBf0sNK8sAseNuWQ9q-54" value="name&lt;span style=&quot;box-sizing: border-box; color: rgb(173, 186, 199); font-family: ui-monospace, SFMono-Regular, &amp;quot;SF Mono&amp;quot;, Menlo, Consolas, &amp;quot;Liberation Mono&amp;quot;, monospace; font-size: 12px; text-align: start; background-color: rgb(34, 39, 46);&quot; class=&quot;pl-s1&quot;&gt;&lt;/span&gt;&lt;span style=&quot;color: rgb(173, 186, 199); font-family: ui-monospace, SFMono-Regular, &amp;quot;SF Mono&amp;quot;, Menlo, Consolas, &amp;quot;Liberation Mono&amp;quot;, monospace; font-size: 12px; text-align: start; background-color: rgb(34, 39, 46);&quot;&gt;&lt;/span&gt;&lt;span style=&quot;box-sizing: border-box; color: rgb(173, 186, 199); font-family: ui-monospace, SFMono-Regular, &amp;quot;SF Mono&amp;quot;, Menlo, Consolas, &amp;quot;Liberation Mono&amp;quot;, monospace; font-size: 12px; text-align: start; background-color: rgb(34, 39, 46);&quot; class=&quot;pl-s1&quot;&gt;&lt;/span&gt;&lt;span style=&quot;color: rgb(173, 186, 199); font-family: ui-monospace, SFMono-Regular, &amp;quot;SF Mono&amp;quot;, Menlo, Consolas, &amp;quot;Liberation Mono&amp;quot;, monospace; font-size: 12px; text-align: start; background-color: rgb(34, 39, 46);&quot;&gt;&lt;/span&gt;&lt;span style=&quot;box-sizing: border-box; color: rgb(173, 186, 199); font-family: ui-monospace, SFMono-Regular, &amp;quot;SF Mono&amp;quot;, Menlo, Consolas, &amp;quot;Liberation Mono&amp;quot;, monospace; font-size: 12px; text-align: start; background-color: rgb(34, 39, 46);&quot; class=&quot;pl-s1&quot;&gt;&lt;/span&gt;&lt;span style=&quot;color: rgb(173, 186, 199); font-family: ui-monospace, SFMono-Regular, &amp;quot;SF Mono&amp;quot;, Menlo, Consolas, &amp;quot;Liberation Mono&amp;quot;, monospace; font-size: 12px; text-align: start; background-color: rgb(34, 39, 46);&quot;&gt;&lt;/span&gt;" style="shape=partialRectangle;html=1;whiteSpace=wrap;connectable=0;fillColor=none;top=0;left=0;bottom=0;right=0;overflow=hidden;strokeColor=inherit;fontSize=16;" parent="axmBf0sNK8sAseNuWQ9q-53" vertex="1">
          <mxGeometry width="108" height="30" as="geometry">
            <mxRectangle width="108" height="30" as="alternateBounds" />
          </mxGeometry>
        </mxCell>
        <mxCell id="axmBf0sNK8sAseNuWQ9q-55" value="String" style="shape=partialRectangle;html=1;whiteSpace=wrap;connectable=0;fillColor=none;top=0;left=0;bottom=0;right=0;align=left;spacingLeft=6;overflow=hidden;strokeColor=inherit;fontSize=16;" parent="axmBf0sNK8sAseNuWQ9q-53" vertex="1">
          <mxGeometry x="108" width="110" height="30" as="geometry">
            <mxRectangle width="110" height="30" as="alternateBounds" />
          </mxGeometry>
        </mxCell>
        <mxCell id="axmBf0sNK8sAseNuWQ9q-69" value="not null" style="shape=partialRectangle;html=1;whiteSpace=wrap;connectable=0;fillColor=none;top=0;left=0;bottom=0;right=0;align=left;spacingLeft=6;overflow=hidden;strokeColor=inherit;fontSize=16;" parent="axmBf0sNK8sAseNuWQ9q-53" vertex="1">
          <mxGeometry x="218" width="220" height="30" as="geometry">
            <mxRectangle width="220" height="30" as="alternateBounds" />
          </mxGeometry>
        </mxCell>
        <mxCell id="axmBf0sNK8sAseNuWQ9q-56" value="" style="shape=tableRow;horizontal=0;startSize=0;swimlaneHead=0;swimlaneBody=0;top=0;left=0;bottom=0;right=0;collapsible=0;dropTarget=0;fillColor=none;points=[[0,0.5],[1,0.5]];portConstraint=eastwest;strokeColor=inherit;fontSize=16;" parent="axmBf0sNK8sAseNuWQ9q-49" vertex="1">
          <mxGeometry y="90" width="438" height="30" as="geometry" />
        </mxCell>
        <mxCell id="axmBf0sNK8sAseNuWQ9q-57" value="last_name&lt;span style=&quot;color: rgb(173, 186, 199); font-family: ui-monospace, SFMono-Regular, &amp;quot;SF Mono&amp;quot;, Menlo, Consolas, &amp;quot;Liberation Mono&amp;quot;, monospace; font-size: 12px; text-align: start; background-color: rgb(34, 39, 46);&quot;&gt;&lt;/span&gt;" style="shape=partialRectangle;html=1;whiteSpace=wrap;connectable=0;fillColor=none;top=0;left=0;bottom=0;right=0;overflow=hidden;strokeColor=inherit;fontSize=16;" parent="axmBf0sNK8sAseNuWQ9q-56" vertex="1">
          <mxGeometry width="108" height="30" as="geometry">
            <mxRectangle width="108" height="30" as="alternateBounds" />
          </mxGeometry>
        </mxCell>
        <mxCell id="axmBf0sNK8sAseNuWQ9q-58" value="String" style="shape=partialRectangle;html=1;whiteSpace=wrap;connectable=0;fillColor=none;top=0;left=0;bottom=0;right=0;align=left;spacingLeft=6;overflow=hidden;strokeColor=inherit;fontSize=16;" parent="axmBf0sNK8sAseNuWQ9q-56" vertex="1">
          <mxGeometry x="108" width="110" height="30" as="geometry">
            <mxRectangle width="110" height="30" as="alternateBounds" />
          </mxGeometry>
        </mxCell>
        <mxCell id="axmBf0sNK8sAseNuWQ9q-70" style="shape=partialRectangle;html=1;whiteSpace=wrap;connectable=0;fillColor=none;top=0;left=0;bottom=0;right=0;align=left;spacingLeft=6;overflow=hidden;strokeColor=inherit;fontSize=16;" parent="axmBf0sNK8sAseNuWQ9q-56" vertex="1">
          <mxGeometry x="218" width="220" height="30" as="geometry">
            <mxRectangle width="220" height="30" as="alternateBounds" />
          </mxGeometry>
        </mxCell>
        <mxCell id="axmBf0sNK8sAseNuWQ9q-62" style="shape=tableRow;horizontal=0;startSize=0;swimlaneHead=0;swimlaneBody=0;top=0;left=0;bottom=0;right=0;collapsible=0;dropTarget=0;fillColor=none;points=[[0,0.5],[1,0.5]];portConstraint=eastwest;strokeColor=inherit;fontSize=16;" parent="axmBf0sNK8sAseNuWQ9q-49" vertex="1">
          <mxGeometry y="120" width="438" height="30" as="geometry" />
        </mxCell>
        <mxCell id="axmBf0sNK8sAseNuWQ9q-63" value="games&lt;span style=&quot;box-sizing: border-box; color: rgb(173, 186, 199); font-family: ui-monospace, SFMono-Regular, &amp;quot;SF Mono&amp;quot;, Menlo, Consolas, &amp;quot;Liberation Mono&amp;quot;, monospace; font-size: 12px; text-align: start; background-color: rgb(34, 39, 46);&quot; class=&quot;pl-s1&quot;&gt;&lt;/span&gt;&lt;span style=&quot;color: rgb(173, 186, 199); font-family: ui-monospace, SFMono-Regular, &amp;quot;SF Mono&amp;quot;, Menlo, Consolas, &amp;quot;Liberation Mono&amp;quot;, monospace; font-size: 12px; text-align: start; background-color: rgb(34, 39, 46);&quot;&gt;&lt;/span&gt;" style="shape=partialRectangle;html=1;whiteSpace=wrap;connectable=0;fillColor=none;top=0;left=0;bottom=0;right=0;overflow=hidden;strokeColor=inherit;fontSize=16;" parent="axmBf0sNK8sAseNuWQ9q-62" vertex="1">
          <mxGeometry width="108" height="30" as="geometry">
            <mxRectangle width="108" height="30" as="alternateBounds" />
          </mxGeometry>
        </mxCell>
        <mxCell id="axmBf0sNK8sAseNuWQ9q-64" style="shape=partialRectangle;html=1;whiteSpace=wrap;connectable=0;fillColor=none;top=0;left=0;bottom=0;right=0;align=left;spacingLeft=6;overflow=hidden;strokeColor=inherit;fontSize=16;" parent="axmBf0sNK8sAseNuWQ9q-62" vertex="1">
          <mxGeometry x="108" width="110" height="30" as="geometry">
            <mxRectangle width="110" height="30" as="alternateBounds" />
          </mxGeometry>
        </mxCell>
        <mxCell id="axmBf0sNK8sAseNuWQ9q-71" style="shape=partialRectangle;html=1;whiteSpace=wrap;connectable=0;fillColor=none;top=0;left=0;bottom=0;right=0;align=left;spacingLeft=6;overflow=hidden;strokeColor=inherit;fontSize=16;" parent="axmBf0sNK8sAseNuWQ9q-62" vertex="1">
          <mxGeometry x="218" width="220" height="30" as="geometry">
            <mxRectangle width="220" height="30" as="alternateBounds" />
          </mxGeometry>
        </mxCell>
        <mxCell id="axmBf0sNK8sAseNuWQ9q-65" style="shape=tableRow;horizontal=0;startSize=0;swimlaneHead=0;swimlaneBody=0;top=0;left=0;bottom=0;right=0;collapsible=0;dropTarget=0;fillColor=none;points=[[0,0.5],[1,0.5]];portConstraint=eastwest;strokeColor=inherit;fontSize=16;" parent="axmBf0sNK8sAseNuWQ9q-49" vertex="1">
          <mxGeometry y="150" width="438" height="30" as="geometry" />
        </mxCell>
        <mxCell id="axmBf0sNK8sAseNuWQ9q-66" value="scores" style="shape=partialRectangle;html=1;whiteSpace=wrap;connectable=0;fillColor=none;top=0;left=0;bottom=0;right=0;overflow=hidden;strokeColor=inherit;fontSize=16;" parent="axmBf0sNK8sAseNuWQ9q-65" vertex="1">
          <mxGeometry width="108" height="30" as="geometry">
            <mxRectangle width="108" height="30" as="alternateBounds" />
          </mxGeometry>
        </mxCell>
        <mxCell id="axmBf0sNK8sAseNuWQ9q-67" style="shape=partialRectangle;html=1;whiteSpace=wrap;connectable=0;fillColor=none;top=0;left=0;bottom=0;right=0;align=left;spacingLeft=6;overflow=hidden;strokeColor=inherit;fontSize=16;" parent="axmBf0sNK8sAseNuWQ9q-65" vertex="1">
          <mxGeometry x="108" width="110" height="30" as="geometry">
            <mxRectangle width="110" height="30" as="alternateBounds" />
          </mxGeometry>
        </mxCell>
        <mxCell id="axmBf0sNK8sAseNuWQ9q-72" style="shape=partialRectangle;html=1;whiteSpace=wrap;connectable=0;fillColor=none;top=0;left=0;bottom=0;right=0;align=left;spacingLeft=6;overflow=hidden;strokeColor=inherit;fontSize=16;" parent="axmBf0sNK8sAseNuWQ9q-65" vertex="1">
          <mxGeometry x="218" width="220" height="30" as="geometry">
            <mxRectangle width="220" height="30" as="alternateBounds" />
          </mxGeometry>
        </mxCell>
        <mxCell id="axmBf0sNK8sAseNuWQ9q-73" value="" style="fontSize=12;html=1;endArrow=ERmany;startArrow=ERmany;rounded=0;edgeStyle=elbowEdgeStyle;exitX=0;exitY=0.5;exitDx=0;exitDy=0;entryX=0;entryY=0.5;entryDx=0;entryDy=0;" parent="1" source="axmBf0sNK8sAseNuWQ9q-8" target="axmBf0sNK8sAseNuWQ9q-62" edge="1">
          <mxGeometry width="100" height="100" relative="1" as="geometry">
            <mxPoint x="830" y="710" as="sourcePoint" />
            <mxPoint x="892" y="910" as="targetPoint" />
            <Array as="points">
              <mxPoint x="670" y="780" />
              <mxPoint x="790" y="778" />
            </Array>
          </mxGeometry>
        </mxCell>
        <mxCell id="axmBf0sNK8sAseNuWQ9q-78" value="" style="edgeStyle=entityRelationEdgeStyle;fontSize=12;html=1;endArrow=ERoneToMany;rounded=0;entryX=0;entryY=0.5;entryDx=0;entryDy=0;exitX=1;exitY=0.5;exitDx=0;exitDy=0;" parent="1" target="axmBf0sNK8sAseNuWQ9q-34" edge="1" source="axmBf0sNK8sAseNuWQ9q-65">
          <mxGeometry width="100" height="100" relative="1" as="geometry">
            <mxPoint x="1330" y="940" as="sourcePoint" />
            <mxPoint x="1430" y="840" as="targetPoint" />
          </mxGeometry>
        </mxCell>
        <mxCell id="axmBf0sNK8sAseNuWQ9q-79" value="" style="edgeStyle=entityRelationEdgeStyle;fontSize=12;html=1;endArrow=ERoneToMany;rounded=0;entryX=0;entryY=0.5;entryDx=0;entryDy=0;exitX=1;exitY=0.5;exitDx=0;exitDy=0;" parent="1" target="axmBf0sNK8sAseNuWQ9q-31" edge="1" source="axmBf0sNK8sAseNuWQ9q-20">
          <mxGeometry width="100" height="100" relative="1" as="geometry">
            <mxPoint x="1570" y="970" as="sourcePoint" />
            <mxPoint x="1430" y="570" as="targetPoint" />
          </mxGeometry>
        </mxCell>
        <mxCell id="s3mZJwamYYUPRJ0tXp7X-1" value="themes" style="shape=table;startSize=30;container=1;collapsible=0;childLayout=tableLayout;fixedRows=1;rowLines=1;fontStyle=0;strokeColor=default;fontSize=16;" vertex="1" parent="1">
          <mxGeometry x="920" y="1510" width="670.0000000000009" height="150" as="geometry" />
        </mxCell>
        <mxCell id="s3mZJwamYYUPRJ0tXp7X-2" value="" style="shape=tableRow;horizontal=0;startSize=0;swimlaneHead=0;swimlaneBody=0;top=0;left=0;bottom=0;right=0;collapsible=0;dropTarget=0;fillColor=none;points=[[0,0.5],[1,0.5]];portConstraint=eastwest;strokeColor=inherit;fontSize=16;" vertex="1" parent="s3mZJwamYYUPRJ0tXp7X-1">
          <mxGeometry y="30" width="670.0000000000009" height="30" as="geometry" />
        </mxCell>
        <mxCell id="s3mZJwamYYUPRJ0tXp7X-3" value="id" style="shape=partialRectangle;html=1;whiteSpace=wrap;connectable=0;fillColor=none;top=0;left=0;bottom=0;right=0;overflow=hidden;pointerEvents=1;strokeColor=inherit;fontSize=16;" vertex="1" parent="s3mZJwamYYUPRJ0tXp7X-2">
          <mxGeometry width="180" height="30" as="geometry">
            <mxRectangle width="180" height="30" as="alternateBounds" />
          </mxGeometry>
        </mxCell>
        <mxCell id="s3mZJwamYYUPRJ0tXp7X-4" value="INTEGER" style="shape=partialRectangle;html=1;whiteSpace=wrap;connectable=0;fillColor=none;top=0;left=0;bottom=0;right=0;align=left;spacingLeft=6;overflow=hidden;strokeColor=inherit;fontSize=16;" vertex="1" parent="s3mZJwamYYUPRJ0tXp7X-2">
          <mxGeometry x="180" width="220" height="30" as="geometry">
            <mxRectangle width="220" height="30" as="alternateBounds" />
          </mxGeometry>
        </mxCell>
        <mxCell id="s3mZJwamYYUPRJ0tXp7X-21" value="primary_key, autoincrement" style="shape=partialRectangle;html=1;whiteSpace=wrap;connectable=0;fillColor=none;top=0;left=0;bottom=0;right=0;align=left;spacingLeft=6;overflow=hidden;strokeColor=inherit;fontSize=16;" vertex="1" parent="s3mZJwamYYUPRJ0tXp7X-2">
          <mxGeometry x="400" width="270" height="30" as="geometry">
            <mxRectangle width="270" height="30" as="alternateBounds" />
          </mxGeometry>
        </mxCell>
        <mxCell id="s3mZJwamYYUPRJ0tXp7X-47" style="shape=tableRow;horizontal=0;startSize=0;swimlaneHead=0;swimlaneBody=0;top=0;left=0;bottom=0;right=0;collapsible=0;dropTarget=0;fillColor=none;points=[[0,0.5],[1,0.5]];portConstraint=eastwest;strokeColor=inherit;fontSize=16;" vertex="1" parent="s3mZJwamYYUPRJ0tXp7X-1">
          <mxGeometry y="60" width="670.0000000000009" height="30" as="geometry" />
        </mxCell>
        <mxCell id="s3mZJwamYYUPRJ0tXp7X-48" value="name" style="shape=partialRectangle;html=1;whiteSpace=wrap;connectable=0;fillColor=none;top=0;left=0;bottom=0;right=0;overflow=hidden;pointerEvents=1;strokeColor=inherit;fontSize=16;" vertex="1" parent="s3mZJwamYYUPRJ0tXp7X-47">
          <mxGeometry width="180" height="30" as="geometry">
            <mxRectangle width="180" height="30" as="alternateBounds" />
          </mxGeometry>
        </mxCell>
        <mxCell id="s3mZJwamYYUPRJ0tXp7X-49" value="String" style="shape=partialRectangle;html=1;whiteSpace=wrap;connectable=0;fillColor=none;top=0;left=0;bottom=0;right=0;align=left;spacingLeft=6;overflow=hidden;strokeColor=inherit;fontSize=16;" vertex="1" parent="s3mZJwamYYUPRJ0tXp7X-47">
          <mxGeometry x="180" width="220" height="30" as="geometry">
            <mxRectangle width="220" height="30" as="alternateBounds" />
          </mxGeometry>
        </mxCell>
        <mxCell id="s3mZJwamYYUPRJ0tXp7X-50" value="not null" style="shape=partialRectangle;html=1;whiteSpace=wrap;connectable=0;fillColor=none;top=0;left=0;bottom=0;right=0;align=left;spacingLeft=6;overflow=hidden;strokeColor=inherit;fontSize=16;" vertex="1" parent="s3mZJwamYYUPRJ0tXp7X-47">
          <mxGeometry x="400" width="270" height="30" as="geometry">
            <mxRectangle width="270" height="30" as="alternateBounds" />
          </mxGeometry>
        </mxCell>
        <mxCell id="s3mZJwamYYUPRJ0tXp7X-5" value="" style="shape=tableRow;horizontal=0;startSize=0;swimlaneHead=0;swimlaneBody=0;top=0;left=0;bottom=0;right=0;collapsible=0;dropTarget=0;fillColor=none;points=[[0,0.5],[1,0.5]];portConstraint=eastwest;strokeColor=inherit;fontSize=16;" vertex="1" parent="s3mZJwamYYUPRJ0tXp7X-1">
          <mxGeometry y="90" width="670.0000000000009" height="30" as="geometry" />
        </mxCell>
        <mxCell id="s3mZJwamYYUPRJ0tXp7X-6" value="questions" style="shape=partialRectangle;html=1;whiteSpace=wrap;connectable=0;fillColor=none;top=0;left=0;bottom=0;right=0;overflow=hidden;strokeColor=inherit;fontSize=16;" vertex="1" parent="s3mZJwamYYUPRJ0tXp7X-5">
          <mxGeometry width="180" height="30" as="geometry">
            <mxRectangle width="180" height="30" as="alternateBounds" />
          </mxGeometry>
        </mxCell>
        <mxCell id="s3mZJwamYYUPRJ0tXp7X-7" value="" style="shape=partialRectangle;html=1;whiteSpace=wrap;connectable=0;fillColor=none;top=0;left=0;bottom=0;right=0;align=left;spacingLeft=6;overflow=hidden;strokeColor=inherit;fontSize=16;" vertex="1" parent="s3mZJwamYYUPRJ0tXp7X-5">
          <mxGeometry x="180" width="220" height="30" as="geometry">
            <mxRectangle width="220" height="30" as="alternateBounds" />
          </mxGeometry>
        </mxCell>
        <mxCell id="s3mZJwamYYUPRJ0tXp7X-22" style="shape=partialRectangle;html=1;whiteSpace=wrap;connectable=0;fillColor=none;top=0;left=0;bottom=0;right=0;align=left;spacingLeft=6;overflow=hidden;strokeColor=inherit;fontSize=16;" vertex="1" parent="s3mZJwamYYUPRJ0tXp7X-5">
          <mxGeometry x="400" width="270" height="30" as="geometry">
            <mxRectangle width="270" height="30" as="alternateBounds" />
          </mxGeometry>
        </mxCell>
        <mxCell id="s3mZJwamYYUPRJ0tXp7X-96" style="shape=tableRow;horizontal=0;startSize=0;swimlaneHead=0;swimlaneBody=0;top=0;left=0;bottom=0;right=0;collapsible=0;dropTarget=0;fillColor=none;points=[[0,0.5],[1,0.5]];portConstraint=eastwest;strokeColor=inherit;fontSize=16;" vertex="1" parent="s3mZJwamYYUPRJ0tXp7X-1">
          <mxGeometry y="120" width="670.0000000000009" height="30" as="geometry" />
        </mxCell>
        <mxCell id="s3mZJwamYYUPRJ0tXp7X-97" value="games_used_by" style="shape=partialRectangle;html=1;whiteSpace=wrap;connectable=0;fillColor=none;top=0;left=0;bottom=0;right=0;overflow=hidden;strokeColor=inherit;fontSize=16;" vertex="1" parent="s3mZJwamYYUPRJ0tXp7X-96">
          <mxGeometry width="180" height="30" as="geometry">
            <mxRectangle width="180" height="30" as="alternateBounds" />
          </mxGeometry>
        </mxCell>
        <mxCell id="s3mZJwamYYUPRJ0tXp7X-98" style="shape=partialRectangle;html=1;whiteSpace=wrap;connectable=0;fillColor=none;top=0;left=0;bottom=0;right=0;align=left;spacingLeft=6;overflow=hidden;strokeColor=inherit;fontSize=16;" vertex="1" parent="s3mZJwamYYUPRJ0tXp7X-96">
          <mxGeometry x="180" width="220" height="30" as="geometry">
            <mxRectangle width="220" height="30" as="alternateBounds" />
          </mxGeometry>
        </mxCell>
        <mxCell id="s3mZJwamYYUPRJ0tXp7X-99" style="shape=partialRectangle;html=1;whiteSpace=wrap;connectable=0;fillColor=none;top=0;left=0;bottom=0;right=0;align=left;spacingLeft=6;overflow=hidden;strokeColor=inherit;fontSize=16;" vertex="1" parent="s3mZJwamYYUPRJ0tXp7X-96">
          <mxGeometry x="400" width="270" height="30" as="geometry">
            <mxRectangle width="270" height="30" as="alternateBounds" />
          </mxGeometry>
        </mxCell>
        <mxCell id="s3mZJwamYYUPRJ0tXp7X-11" value="questions" style="shape=table;startSize=30;container=1;collapsible=0;childLayout=tableLayout;fixedRows=1;rowLines=1;fontStyle=0;strokeColor=default;fontSize=16;" vertex="1" parent="1">
          <mxGeometry x="920" y="1800" width="670" height="180" as="geometry" />
        </mxCell>
        <mxCell id="s3mZJwamYYUPRJ0tXp7X-12" value="" style="shape=tableRow;horizontal=0;startSize=0;swimlaneHead=0;swimlaneBody=0;top=0;left=0;bottom=0;right=0;collapsible=0;dropTarget=0;fillColor=none;points=[[0,0.5],[1,0.5]];portConstraint=eastwest;strokeColor=inherit;fontSize=16;" vertex="1" parent="s3mZJwamYYUPRJ0tXp7X-11">
          <mxGeometry y="30" width="670" height="30" as="geometry" />
        </mxCell>
        <mxCell id="s3mZJwamYYUPRJ0tXp7X-13" value="id" style="shape=partialRectangle;html=1;whiteSpace=wrap;connectable=0;fillColor=none;top=0;left=0;bottom=0;right=0;overflow=hidden;pointerEvents=1;strokeColor=inherit;fontSize=16;" vertex="1" parent="s3mZJwamYYUPRJ0tXp7X-12">
          <mxGeometry width="180" height="30" as="geometry">
            <mxRectangle width="180" height="30" as="alternateBounds" />
          </mxGeometry>
        </mxCell>
        <mxCell id="s3mZJwamYYUPRJ0tXp7X-14" value="INTEGER" style="shape=partialRectangle;html=1;whiteSpace=wrap;connectable=0;fillColor=none;top=0;left=0;bottom=0;right=0;align=left;spacingLeft=6;overflow=hidden;strokeColor=inherit;fontSize=16;" vertex="1" parent="s3mZJwamYYUPRJ0tXp7X-12">
          <mxGeometry x="180" width="220" height="30" as="geometry">
            <mxRectangle width="220" height="30" as="alternateBounds" />
          </mxGeometry>
        </mxCell>
        <mxCell id="s3mZJwamYYUPRJ0tXp7X-23" value="primary_key, autoincrement" style="shape=partialRectangle;html=1;whiteSpace=wrap;connectable=0;fillColor=none;top=0;left=0;bottom=0;right=0;align=left;spacingLeft=6;overflow=hidden;strokeColor=inherit;fontSize=16;" vertex="1" parent="s3mZJwamYYUPRJ0tXp7X-12">
          <mxGeometry x="400" width="270" height="30" as="geometry">
            <mxRectangle width="270" height="30" as="alternateBounds" />
          </mxGeometry>
        </mxCell>
        <mxCell id="s3mZJwamYYUPRJ0tXp7X-15" value="" style="shape=tableRow;horizontal=0;startSize=0;swimlaneHead=0;swimlaneBody=0;top=0;left=0;bottom=0;right=0;collapsible=0;dropTarget=0;fillColor=none;points=[[0,0.5],[1,0.5]];portConstraint=eastwest;strokeColor=inherit;fontSize=16;" vertex="1" parent="s3mZJwamYYUPRJ0tXp7X-11">
          <mxGeometry y="60" width="670" height="30" as="geometry" />
        </mxCell>
        <mxCell id="s3mZJwamYYUPRJ0tXp7X-16" value="theme_id" style="shape=partialRectangle;html=1;whiteSpace=wrap;connectable=0;fillColor=none;top=0;left=0;bottom=0;right=0;overflow=hidden;strokeColor=inherit;fontSize=16;" vertex="1" parent="s3mZJwamYYUPRJ0tXp7X-15">
          <mxGeometry width="180" height="30" as="geometry">
            <mxRectangle width="180" height="30" as="alternateBounds" />
          </mxGeometry>
        </mxCell>
        <mxCell id="s3mZJwamYYUPRJ0tXp7X-17" value="INTEGER" style="shape=partialRectangle;html=1;whiteSpace=wrap;connectable=0;fillColor=none;top=0;left=0;bottom=0;right=0;align=left;spacingLeft=6;overflow=hidden;strokeColor=inherit;fontSize=16;" vertex="1" parent="s3mZJwamYYUPRJ0tXp7X-15">
          <mxGeometry x="180" width="220" height="30" as="geometry">
            <mxRectangle width="220" height="30" as="alternateBounds" />
          </mxGeometry>
        </mxCell>
        <mxCell id="s3mZJwamYYUPRJ0tXp7X-24" value="not null, ForeignKey (theme.id)" style="shape=partialRectangle;html=1;whiteSpace=wrap;connectable=0;fillColor=none;top=0;left=0;bottom=0;right=0;align=left;spacingLeft=6;overflow=hidden;strokeColor=inherit;fontSize=16;" vertex="1" parent="s3mZJwamYYUPRJ0tXp7X-15">
          <mxGeometry x="400" width="270" height="30" as="geometry">
            <mxRectangle width="270" height="30" as="alternateBounds" />
          </mxGeometry>
        </mxCell>
        <mxCell id="s3mZJwamYYUPRJ0tXp7X-51" style="shape=tableRow;horizontal=0;startSize=0;swimlaneHead=0;swimlaneBody=0;top=0;left=0;bottom=0;right=0;collapsible=0;dropTarget=0;fillColor=none;points=[[0,0.5],[1,0.5]];portConstraint=eastwest;strokeColor=inherit;fontSize=16;" vertex="1" parent="s3mZJwamYYUPRJ0tXp7X-11">
          <mxGeometry y="90" width="670" height="30" as="geometry" />
        </mxCell>
        <mxCell id="s3mZJwamYYUPRJ0tXp7X-52" value="text" style="shape=partialRectangle;html=1;whiteSpace=wrap;connectable=0;fillColor=none;top=0;left=0;bottom=0;right=0;overflow=hidden;strokeColor=inherit;fontSize=16;" vertex="1" parent="s3mZJwamYYUPRJ0tXp7X-51">
          <mxGeometry width="180" height="30" as="geometry">
            <mxRectangle width="180" height="30" as="alternateBounds" />
          </mxGeometry>
        </mxCell>
        <mxCell id="s3mZJwamYYUPRJ0tXp7X-53" value="String" style="shape=partialRectangle;html=1;whiteSpace=wrap;connectable=0;fillColor=none;top=0;left=0;bottom=0;right=0;align=left;spacingLeft=6;overflow=hidden;strokeColor=inherit;fontSize=16;" vertex="1" parent="s3mZJwamYYUPRJ0tXp7X-51">
          <mxGeometry x="180" width="220" height="30" as="geometry">
            <mxRectangle width="220" height="30" as="alternateBounds" />
          </mxGeometry>
        </mxCell>
        <mxCell id="s3mZJwamYYUPRJ0tXp7X-54" value="not null" style="shape=partialRectangle;html=1;whiteSpace=wrap;connectable=0;fillColor=none;top=0;left=0;bottom=0;right=0;align=left;spacingLeft=6;overflow=hidden;strokeColor=inherit;fontSize=16;" vertex="1" parent="s3mZJwamYYUPRJ0tXp7X-51">
          <mxGeometry x="400" width="270" height="30" as="geometry">
            <mxRectangle width="270" height="30" as="alternateBounds" />
          </mxGeometry>
        </mxCell>
        <mxCell id="s3mZJwamYYUPRJ0tXp7X-43" style="shape=tableRow;horizontal=0;startSize=0;swimlaneHead=0;swimlaneBody=0;top=0;left=0;bottom=0;right=0;collapsible=0;dropTarget=0;fillColor=none;points=[[0,0.5],[1,0.5]];portConstraint=eastwest;strokeColor=inherit;fontSize=16;" vertex="1" parent="s3mZJwamYYUPRJ0tXp7X-11">
          <mxGeometry y="120" width="670" height="30" as="geometry" />
        </mxCell>
        <mxCell id="s3mZJwamYYUPRJ0tXp7X-44" value="cost" style="shape=partialRectangle;html=1;whiteSpace=wrap;connectable=0;fillColor=none;top=0;left=0;bottom=0;right=0;overflow=hidden;strokeColor=inherit;fontSize=16;" vertex="1" parent="s3mZJwamYYUPRJ0tXp7X-43">
          <mxGeometry width="180" height="30" as="geometry">
            <mxRectangle width="180" height="30" as="alternateBounds" />
          </mxGeometry>
        </mxCell>
        <mxCell id="s3mZJwamYYUPRJ0tXp7X-45" value="INTEGER" style="shape=partialRectangle;html=1;whiteSpace=wrap;connectable=0;fillColor=none;top=0;left=0;bottom=0;right=0;align=left;spacingLeft=6;overflow=hidden;strokeColor=inherit;fontSize=16;" vertex="1" parent="s3mZJwamYYUPRJ0tXp7X-43">
          <mxGeometry x="180" width="220" height="30" as="geometry">
            <mxRectangle width="220" height="30" as="alternateBounds" />
          </mxGeometry>
        </mxCell>
        <mxCell id="s3mZJwamYYUPRJ0tXp7X-46" value="not null" style="shape=partialRectangle;html=1;whiteSpace=wrap;connectable=0;fillColor=none;top=0;left=0;bottom=0;right=0;align=left;spacingLeft=6;overflow=hidden;strokeColor=inherit;fontSize=16;" vertex="1" parent="s3mZJwamYYUPRJ0tXp7X-43">
          <mxGeometry x="400" width="270" height="30" as="geometry">
            <mxRectangle width="270" height="30" as="alternateBounds" />
          </mxGeometry>
        </mxCell>
        <mxCell id="s3mZJwamYYUPRJ0tXp7X-100" style="shape=tableRow;horizontal=0;startSize=0;swimlaneHead=0;swimlaneBody=0;top=0;left=0;bottom=0;right=0;collapsible=0;dropTarget=0;fillColor=none;points=[[0,0.5],[1,0.5]];portConstraint=eastwest;strokeColor=inherit;fontSize=16;" vertex="1" parent="s3mZJwamYYUPRJ0tXp7X-11">
          <mxGeometry y="150" width="670" height="30" as="geometry" />
        </mxCell>
        <mxCell id="s3mZJwamYYUPRJ0tXp7X-101" value="games_used_by" style="shape=partialRectangle;html=1;whiteSpace=wrap;connectable=0;fillColor=none;top=0;left=0;bottom=0;right=0;overflow=hidden;strokeColor=inherit;fontSize=16;" vertex="1" parent="s3mZJwamYYUPRJ0tXp7X-100">
          <mxGeometry width="180" height="30" as="geometry">
            <mxRectangle width="180" height="30" as="alternateBounds" />
          </mxGeometry>
        </mxCell>
        <mxCell id="s3mZJwamYYUPRJ0tXp7X-102" style="shape=partialRectangle;html=1;whiteSpace=wrap;connectable=0;fillColor=none;top=0;left=0;bottom=0;right=0;align=left;spacingLeft=6;overflow=hidden;strokeColor=inherit;fontSize=16;" vertex="1" parent="s3mZJwamYYUPRJ0tXp7X-100">
          <mxGeometry x="180" width="220" height="30" as="geometry">
            <mxRectangle width="220" height="30" as="alternateBounds" />
          </mxGeometry>
        </mxCell>
        <mxCell id="s3mZJwamYYUPRJ0tXp7X-103" style="shape=partialRectangle;html=1;whiteSpace=wrap;connectable=0;fillColor=none;top=0;left=0;bottom=0;right=0;align=left;spacingLeft=6;overflow=hidden;strokeColor=inherit;fontSize=16;" vertex="1" parent="s3mZJwamYYUPRJ0tXp7X-100">
          <mxGeometry x="400" width="270" height="30" as="geometry">
            <mxRectangle width="270" height="30" as="alternateBounds" />
          </mxGeometry>
        </mxCell>
        <mxCell id="s3mZJwamYYUPRJ0tXp7X-27" value="" style="edgeStyle=elbowEdgeStyle;fontSize=12;html=1;endArrow=ERoneToMany;rounded=0;entryX=0;entryY=0.5;entryDx=0;entryDy=0;exitX=0;exitY=0.5;exitDx=0;exitDy=0;" edge="1" parent="1" source="s3mZJwamYYUPRJ0tXp7X-5" target="s3mZJwamYYUPRJ0tXp7X-15">
          <mxGeometry width="100" height="100" relative="1" as="geometry">
            <mxPoint x="709" y="1600" as="sourcePoint" />
            <mxPoint x="869" y="1700" as="targetPoint" />
            <Array as="points">
              <mxPoint x="799" y="1710" />
            </Array>
          </mxGeometry>
        </mxCell>
        <mxCell id="s3mZJwamYYUPRJ0tXp7X-28" value="answers" style="shape=table;startSize=30;container=1;collapsible=0;childLayout=tableLayout;fixedRows=1;rowLines=1;fontStyle=0;strokeColor=default;fontSize=16;" vertex="1" parent="1">
          <mxGeometry x="920" y="2110" width="670" height="120" as="geometry" />
        </mxCell>
        <mxCell id="s3mZJwamYYUPRJ0tXp7X-29" value="" style="shape=tableRow;horizontal=0;startSize=0;swimlaneHead=0;swimlaneBody=0;top=0;left=0;bottom=0;right=0;collapsible=0;dropTarget=0;fillColor=none;points=[[0,0.5],[1,0.5]];portConstraint=eastwest;strokeColor=inherit;fontSize=16;" vertex="1" parent="s3mZJwamYYUPRJ0tXp7X-28">
          <mxGeometry y="30" width="670" height="30" as="geometry" />
        </mxCell>
        <mxCell id="s3mZJwamYYUPRJ0tXp7X-30" value="id" style="shape=partialRectangle;html=1;whiteSpace=wrap;connectable=0;fillColor=none;top=0;left=0;bottom=0;right=0;overflow=hidden;pointerEvents=1;strokeColor=inherit;fontSize=16;" vertex="1" parent="s3mZJwamYYUPRJ0tXp7X-29">
          <mxGeometry width="110" height="30" as="geometry">
            <mxRectangle width="110" height="30" as="alternateBounds" />
          </mxGeometry>
        </mxCell>
        <mxCell id="s3mZJwamYYUPRJ0tXp7X-31" value="INTEGER" style="shape=partialRectangle;html=1;whiteSpace=wrap;connectable=0;fillColor=none;top=0;left=0;bottom=0;right=0;align=left;spacingLeft=6;overflow=hidden;strokeColor=inherit;fontSize=16;" vertex="1" parent="s3mZJwamYYUPRJ0tXp7X-29">
          <mxGeometry x="110" width="280" height="30" as="geometry">
            <mxRectangle width="280" height="30" as="alternateBounds" />
          </mxGeometry>
        </mxCell>
        <mxCell id="s3mZJwamYYUPRJ0tXp7X-32" value="primary_key, autoincrement" style="shape=partialRectangle;html=1;whiteSpace=wrap;connectable=0;fillColor=none;top=0;left=0;bottom=0;right=0;align=left;spacingLeft=6;overflow=hidden;strokeColor=inherit;fontSize=16;" vertex="1" parent="s3mZJwamYYUPRJ0tXp7X-29">
          <mxGeometry x="390" width="280" height="30" as="geometry">
            <mxRectangle width="280" height="30" as="alternateBounds" />
          </mxGeometry>
        </mxCell>
        <mxCell id="s3mZJwamYYUPRJ0tXp7X-33" value="" style="shape=tableRow;horizontal=0;startSize=0;swimlaneHead=0;swimlaneBody=0;top=0;left=0;bottom=0;right=0;collapsible=0;dropTarget=0;fillColor=none;points=[[0,0.5],[1,0.5]];portConstraint=eastwest;strokeColor=inherit;fontSize=16;" vertex="1" parent="s3mZJwamYYUPRJ0tXp7X-28">
          <mxGeometry y="60" width="670" height="30" as="geometry" />
        </mxCell>
        <mxCell id="s3mZJwamYYUPRJ0tXp7X-34" value="question_id" style="shape=partialRectangle;html=1;whiteSpace=wrap;connectable=0;fillColor=none;top=0;left=0;bottom=0;right=0;overflow=hidden;strokeColor=inherit;fontSize=16;" vertex="1" parent="s3mZJwamYYUPRJ0tXp7X-33">
          <mxGeometry width="110" height="30" as="geometry">
            <mxRectangle width="110" height="30" as="alternateBounds" />
          </mxGeometry>
        </mxCell>
        <mxCell id="s3mZJwamYYUPRJ0tXp7X-35" value="INTEGER" style="shape=partialRectangle;html=1;whiteSpace=wrap;connectable=0;fillColor=none;top=0;left=0;bottom=0;right=0;align=left;spacingLeft=6;overflow=hidden;strokeColor=inherit;fontSize=16;" vertex="1" parent="s3mZJwamYYUPRJ0tXp7X-33">
          <mxGeometry x="110" width="280" height="30" as="geometry">
            <mxRectangle width="280" height="30" as="alternateBounds" />
          </mxGeometry>
        </mxCell>
        <mxCell id="s3mZJwamYYUPRJ0tXp7X-36" value="not null, ForeignKey (question.id)" style="shape=partialRectangle;html=1;whiteSpace=wrap;connectable=0;fillColor=none;top=0;left=0;bottom=0;right=0;align=left;spacingLeft=6;overflow=hidden;strokeColor=inherit;fontSize=16;" vertex="1" parent="s3mZJwamYYUPRJ0tXp7X-33">
          <mxGeometry x="390" width="280" height="30" as="geometry">
            <mxRectangle width="280" height="30" as="alternateBounds" />
          </mxGeometry>
        </mxCell>
        <mxCell id="s3mZJwamYYUPRJ0tXp7X-55" style="shape=tableRow;horizontal=0;startSize=0;swimlaneHead=0;swimlaneBody=0;top=0;left=0;bottom=0;right=0;collapsible=0;dropTarget=0;fillColor=none;points=[[0,0.5],[1,0.5]];portConstraint=eastwest;strokeColor=inherit;fontSize=16;" vertex="1" parent="s3mZJwamYYUPRJ0tXp7X-28">
          <mxGeometry y="90" width="670" height="30" as="geometry" />
        </mxCell>
        <mxCell id="s3mZJwamYYUPRJ0tXp7X-56" value="text" style="shape=partialRectangle;html=1;whiteSpace=wrap;connectable=0;fillColor=none;top=0;left=0;bottom=0;right=0;overflow=hidden;strokeColor=inherit;fontSize=16;" vertex="1" parent="s3mZJwamYYUPRJ0tXp7X-55">
          <mxGeometry width="110" height="30" as="geometry">
            <mxRectangle width="110" height="30" as="alternateBounds" />
          </mxGeometry>
        </mxCell>
        <mxCell id="s3mZJwamYYUPRJ0tXp7X-57" value="String" style="shape=partialRectangle;html=1;whiteSpace=wrap;connectable=0;fillColor=none;top=0;left=0;bottom=0;right=0;align=left;spacingLeft=6;overflow=hidden;strokeColor=inherit;fontSize=16;" vertex="1" parent="s3mZJwamYYUPRJ0tXp7X-55">
          <mxGeometry x="110" width="280" height="30" as="geometry">
            <mxRectangle width="280" height="30" as="alternateBounds" />
          </mxGeometry>
        </mxCell>
        <mxCell id="s3mZJwamYYUPRJ0tXp7X-58" value="not null" style="shape=partialRectangle;html=1;whiteSpace=wrap;connectable=0;fillColor=none;top=0;left=0;bottom=0;right=0;align=left;spacingLeft=6;overflow=hidden;strokeColor=inherit;fontSize=16;" vertex="1" parent="s3mZJwamYYUPRJ0tXp7X-55">
          <mxGeometry x="390" width="280" height="30" as="geometry">
            <mxRectangle width="280" height="30" as="alternateBounds" />
          </mxGeometry>
        </mxCell>
        <mxCell id="s3mZJwamYYUPRJ0tXp7X-41" value="" style="edgeStyle=elbowEdgeStyle;fontSize=12;html=1;endArrow=ERmandOne;startArrow=ERmandOne;rounded=0;entryX=0;entryY=0.5;entryDx=0;entryDy=0;exitX=0;exitY=0.5;exitDx=0;exitDy=0;" edge="1" parent="1" source="s3mZJwamYYUPRJ0tXp7X-33" target="s3mZJwamYYUPRJ0tXp7X-12">
          <mxGeometry width="100" height="100" relative="1" as="geometry">
            <mxPoint x="659" y="1980" as="sourcePoint" />
            <mxPoint x="749" y="1820" as="targetPoint" />
            <Array as="points">
              <mxPoint x="680" y="1860" />
            </Array>
          </mxGeometry>
        </mxCell>
        <mxCell id="s3mZJwamYYUPRJ0tXp7X-92" value="" style="edgeStyle=elbowEdgeStyle;fontSize=12;html=1;endArrow=ERmany;rounded=0;exitX=0;exitY=0.387;exitDx=0;exitDy=0;exitPerimeter=0;entryX=0;entryY=0.5;entryDx=0;entryDy=0;startArrow=ERmany;startFill=0;endFill=0;" edge="1" parent="1" source="s3mZJwamYYUPRJ0tXp7X-84" target="s3mZJwamYYUPRJ0tXp7X-96">
          <mxGeometry width="100" height="100" relative="1" as="geometry">
            <mxPoint x="950" y="1260" as="sourcePoint" />
            <mxPoint x="790" y="1560" as="targetPoint" />
            <Array as="points">
              <mxPoint x="680" y="1300" />
              <mxPoint x="690" y="1310" />
              <mxPoint x="410" y="1320" />
            </Array>
          </mxGeometry>
        </mxCell>
        <mxCell id="s3mZJwamYYUPRJ0tXp7X-95" style="edgeStyle=elbowEdgeStyle;rounded=0;orthogonalLoop=1;jettySize=auto;html=1;exitX=1;exitY=0.5;exitDx=0;exitDy=0;endArrow=ERmany;endFill=0;entryX=1;entryY=0.5;entryDx=0;entryDy=0;startArrow=ERmany;startFill=0;" edge="1" parent="1" source="s3mZJwamYYUPRJ0tXp7X-88" target="s3mZJwamYYUPRJ0tXp7X-100">
          <mxGeometry relative="1" as="geometry">
            <mxPoint x="1689.9999999999995" y="1800" as="targetPoint" />
            <Array as="points">
              <mxPoint x="1680" y="1890" />
              <mxPoint x="1680" y="1280" />
              <mxPoint x="1750" y="1460" />
            </Array>
          </mxGeometry>
        </mxCell>
        <mxCell id="s3mZJwamYYUPRJ0tXp7X-110" value="answered_questions" style="shape=table;startSize=30;container=1;collapsible=0;childLayout=tableLayout;fixedRows=1;rowLines=1;fontStyle=0;strokeColor=default;fontSize=16;" vertex="1" parent="1">
          <mxGeometry x="1830" y="1800" width="670" height="120" as="geometry" />
        </mxCell>
        <mxCell id="s3mZJwamYYUPRJ0tXp7X-111" value="" style="shape=tableRow;horizontal=0;startSize=0;swimlaneHead=0;swimlaneBody=0;top=0;left=0;bottom=0;right=0;collapsible=0;dropTarget=0;fillColor=none;points=[[0,0.5],[1,0.5]];portConstraint=eastwest;strokeColor=inherit;fontSize=16;" vertex="1" parent="s3mZJwamYYUPRJ0tXp7X-110">
          <mxGeometry y="30" width="670" height="30" as="geometry" />
        </mxCell>
        <mxCell id="s3mZJwamYYUPRJ0tXp7X-112" value="id" style="shape=partialRectangle;html=1;whiteSpace=wrap;connectable=0;fillColor=none;top=0;left=0;bottom=0;right=0;overflow=hidden;pointerEvents=1;strokeColor=inherit;fontSize=16;" vertex="1" parent="s3mZJwamYYUPRJ0tXp7X-111">
          <mxGeometry width="180" height="30" as="geometry">
            <mxRectangle width="180" height="30" as="alternateBounds" />
          </mxGeometry>
        </mxCell>
        <mxCell id="s3mZJwamYYUPRJ0tXp7X-113" value="INTEGER" style="shape=partialRectangle;html=1;whiteSpace=wrap;connectable=0;fillColor=none;top=0;left=0;bottom=0;right=0;align=left;spacingLeft=6;overflow=hidden;strokeColor=inherit;fontSize=16;" vertex="1" parent="s3mZJwamYYUPRJ0tXp7X-111">
          <mxGeometry x="180" width="220" height="30" as="geometry">
            <mxRectangle width="220" height="30" as="alternateBounds" />
          </mxGeometry>
        </mxCell>
        <mxCell id="s3mZJwamYYUPRJ0tXp7X-114" value="primary_key, autoincrement" style="shape=partialRectangle;html=1;whiteSpace=wrap;connectable=0;fillColor=none;top=0;left=0;bottom=0;right=0;align=left;spacingLeft=6;overflow=hidden;strokeColor=inherit;fontSize=16;" vertex="1" parent="s3mZJwamYYUPRJ0tXp7X-111">
          <mxGeometry x="400" width="270" height="30" as="geometry">
            <mxRectangle width="270" height="30" as="alternateBounds" />
          </mxGeometry>
        </mxCell>
        <mxCell id="s3mZJwamYYUPRJ0tXp7X-154" style="shape=tableRow;horizontal=0;startSize=0;swimlaneHead=0;swimlaneBody=0;top=0;left=0;bottom=0;right=0;collapsible=0;dropTarget=0;fillColor=none;points=[[0,0.5],[1,0.5]];portConstraint=eastwest;strokeColor=inherit;fontSize=16;" vertex="1" parent="s3mZJwamYYUPRJ0tXp7X-110">
          <mxGeometry y="60" width="670" height="30" as="geometry" />
        </mxCell>
        <mxCell id="s3mZJwamYYUPRJ0tXp7X-155" value="answer_id" style="shape=partialRectangle;html=1;whiteSpace=wrap;connectable=0;fillColor=none;top=0;left=0;bottom=0;right=0;overflow=hidden;pointerEvents=1;strokeColor=inherit;fontSize=16;" vertex="1" parent="s3mZJwamYYUPRJ0tXp7X-154">
          <mxGeometry width="180" height="30" as="geometry">
            <mxRectangle width="180" height="30" as="alternateBounds" />
          </mxGeometry>
        </mxCell>
        <mxCell id="s3mZJwamYYUPRJ0tXp7X-156" value="INTEGER" style="shape=partialRectangle;html=1;whiteSpace=wrap;connectable=0;fillColor=none;top=0;left=0;bottom=0;right=0;align=left;spacingLeft=6;overflow=hidden;strokeColor=inherit;fontSize=16;" vertex="1" parent="s3mZJwamYYUPRJ0tXp7X-154">
          <mxGeometry x="180" width="220" height="30" as="geometry">
            <mxRectangle width="220" height="30" as="alternateBounds" />
          </mxGeometry>
        </mxCell>
        <mxCell id="s3mZJwamYYUPRJ0tXp7X-157" style="shape=partialRectangle;html=1;whiteSpace=wrap;connectable=0;fillColor=none;top=0;left=0;bottom=0;right=0;align=left;spacingLeft=6;overflow=hidden;strokeColor=inherit;fontSize=16;" vertex="1" parent="s3mZJwamYYUPRJ0tXp7X-154">
          <mxGeometry x="400" width="270" height="30" as="geometry">
            <mxRectangle width="270" height="30" as="alternateBounds" />
          </mxGeometry>
        </mxCell>
        <mxCell id="s3mZJwamYYUPRJ0tXp7X-115" value="" style="shape=tableRow;horizontal=0;startSize=0;swimlaneHead=0;swimlaneBody=0;top=0;left=0;bottom=0;right=0;collapsible=0;dropTarget=0;fillColor=none;points=[[0,0.5],[1,0.5]];portConstraint=eastwest;strokeColor=inherit;fontSize=16;" vertex="1" parent="s3mZJwamYYUPRJ0tXp7X-110">
          <mxGeometry y="90" width="670" height="30" as="geometry" />
        </mxCell>
        <mxCell id="s3mZJwamYYUPRJ0tXp7X-116" value="game_id" style="shape=partialRectangle;html=1;whiteSpace=wrap;connectable=0;fillColor=none;top=0;left=0;bottom=0;right=0;overflow=hidden;strokeColor=inherit;fontSize=16;" vertex="1" parent="s3mZJwamYYUPRJ0tXp7X-115">
          <mxGeometry width="180" height="30" as="geometry">
            <mxRectangle width="180" height="30" as="alternateBounds" />
          </mxGeometry>
        </mxCell>
        <mxCell id="s3mZJwamYYUPRJ0tXp7X-117" value="INTEGER" style="shape=partialRectangle;html=1;whiteSpace=wrap;connectable=0;fillColor=none;top=0;left=0;bottom=0;right=0;align=left;spacingLeft=6;overflow=hidden;strokeColor=inherit;fontSize=16;" vertex="1" parent="s3mZJwamYYUPRJ0tXp7X-115">
          <mxGeometry x="180" width="220" height="30" as="geometry">
            <mxRectangle width="220" height="30" as="alternateBounds" />
          </mxGeometry>
        </mxCell>
        <mxCell id="s3mZJwamYYUPRJ0tXp7X-118" value="not null, ForeignKey (game.id)" style="shape=partialRectangle;html=1;whiteSpace=wrap;connectable=0;fillColor=none;top=0;left=0;bottom=0;right=0;align=left;spacingLeft=6;overflow=hidden;strokeColor=inherit;fontSize=16;" vertex="1" parent="s3mZJwamYYUPRJ0tXp7X-115">
          <mxGeometry x="400" width="270" height="30" as="geometry">
            <mxRectangle width="270" height="30" as="alternateBounds" />
          </mxGeometry>
        </mxCell>
        <mxCell id="s3mZJwamYYUPRJ0tXp7X-135" value="" style="edgeStyle=elbowEdgeStyle;fontSize=12;html=1;endArrow=ERoneToMany;rounded=0;exitX=1;exitY=0.5;exitDx=0;exitDy=0;entryX=0;entryY=0.5;entryDx=0;entryDy=0;" edge="1" parent="1" source="s3mZJwamYYUPRJ0tXp7X-131" target="s3mZJwamYYUPRJ0tXp7X-115">
          <mxGeometry width="100" height="100" relative="1" as="geometry">
            <mxPoint x="1660" y="1520" as="sourcePoint" />
            <mxPoint x="1760" y="1420" as="targetPoint" />
            <Array as="points">
              <mxPoint x="1740" y="1490" />
            </Array>
          </mxGeometry>
        </mxCell>
        <mxCell id="s3mZJwamYYUPRJ0tXp7X-140" value="answered_themes" style="shape=table;startSize=30;container=1;collapsible=0;childLayout=tableLayout;fixedRows=1;rowLines=1;fontStyle=0;strokeColor=default;fontSize=16;" vertex="1" parent="1">
          <mxGeometry x="1830" y="1510" width="670" height="120" as="geometry" />
        </mxCell>
        <mxCell id="s3mZJwamYYUPRJ0tXp7X-141" value="" style="shape=tableRow;horizontal=0;startSize=0;swimlaneHead=0;swimlaneBody=0;top=0;left=0;bottom=0;right=0;collapsible=0;dropTarget=0;fillColor=none;points=[[0,0.5],[1,0.5]];portConstraint=eastwest;strokeColor=inherit;fontSize=16;" vertex="1" parent="s3mZJwamYYUPRJ0tXp7X-140">
          <mxGeometry y="30" width="670" height="30" as="geometry" />
        </mxCell>
        <mxCell id="s3mZJwamYYUPRJ0tXp7X-142" value="id" style="shape=partialRectangle;html=1;whiteSpace=wrap;connectable=0;fillColor=none;top=0;left=0;bottom=0;right=0;overflow=hidden;pointerEvents=1;strokeColor=inherit;fontSize=16;" vertex="1" parent="s3mZJwamYYUPRJ0tXp7X-141">
          <mxGeometry width="180" height="30" as="geometry">
            <mxRectangle width="180" height="30" as="alternateBounds" />
          </mxGeometry>
        </mxCell>
        <mxCell id="s3mZJwamYYUPRJ0tXp7X-143" value="INTEGER" style="shape=partialRectangle;html=1;whiteSpace=wrap;connectable=0;fillColor=none;top=0;left=0;bottom=0;right=0;align=left;spacingLeft=6;overflow=hidden;strokeColor=inherit;fontSize=16;" vertex="1" parent="s3mZJwamYYUPRJ0tXp7X-141">
          <mxGeometry x="180" width="220" height="30" as="geometry">
            <mxRectangle width="220" height="30" as="alternateBounds" />
          </mxGeometry>
        </mxCell>
        <mxCell id="s3mZJwamYYUPRJ0tXp7X-144" value="primary_key, autoincrement" style="shape=partialRectangle;html=1;whiteSpace=wrap;connectable=0;fillColor=none;top=0;left=0;bottom=0;right=0;align=left;spacingLeft=6;overflow=hidden;strokeColor=inherit;fontSize=16;" vertex="1" parent="s3mZJwamYYUPRJ0tXp7X-141">
          <mxGeometry x="400" width="270" height="30" as="geometry">
            <mxRectangle width="270" height="30" as="alternateBounds" />
          </mxGeometry>
        </mxCell>
        <mxCell id="s3mZJwamYYUPRJ0tXp7X-150" style="shape=tableRow;horizontal=0;startSize=0;swimlaneHead=0;swimlaneBody=0;top=0;left=0;bottom=0;right=0;collapsible=0;dropTarget=0;fillColor=none;points=[[0,0.5],[1,0.5]];portConstraint=eastwest;strokeColor=inherit;fontSize=16;" vertex="1" parent="s3mZJwamYYUPRJ0tXp7X-140">
          <mxGeometry y="60" width="670" height="30" as="geometry" />
        </mxCell>
        <mxCell id="s3mZJwamYYUPRJ0tXp7X-151" value="theme_id" style="shape=partialRectangle;html=1;whiteSpace=wrap;connectable=0;fillColor=none;top=0;left=0;bottom=0;right=0;overflow=hidden;pointerEvents=1;strokeColor=inherit;fontSize=16;" vertex="1" parent="s3mZJwamYYUPRJ0tXp7X-150">
          <mxGeometry width="180" height="30" as="geometry">
            <mxRectangle width="180" height="30" as="alternateBounds" />
          </mxGeometry>
        </mxCell>
        <mxCell id="s3mZJwamYYUPRJ0tXp7X-152" value="INTEGER" style="shape=partialRectangle;html=1;whiteSpace=wrap;connectable=0;fillColor=none;top=0;left=0;bottom=0;right=0;align=left;spacingLeft=6;overflow=hidden;strokeColor=inherit;fontSize=16;" vertex="1" parent="s3mZJwamYYUPRJ0tXp7X-150">
          <mxGeometry x="180" width="220" height="30" as="geometry">
            <mxRectangle width="220" height="30" as="alternateBounds" />
          </mxGeometry>
        </mxCell>
        <mxCell id="s3mZJwamYYUPRJ0tXp7X-153" style="shape=partialRectangle;html=1;whiteSpace=wrap;connectable=0;fillColor=none;top=0;left=0;bottom=0;right=0;align=left;spacingLeft=6;overflow=hidden;strokeColor=inherit;fontSize=16;" vertex="1" parent="s3mZJwamYYUPRJ0tXp7X-150">
          <mxGeometry x="400" width="270" height="30" as="geometry">
            <mxRectangle width="270" height="30" as="alternateBounds" />
          </mxGeometry>
        </mxCell>
        <mxCell id="s3mZJwamYYUPRJ0tXp7X-145" value="" style="shape=tableRow;horizontal=0;startSize=0;swimlaneHead=0;swimlaneBody=0;top=0;left=0;bottom=0;right=0;collapsible=0;dropTarget=0;fillColor=none;points=[[0,0.5],[1,0.5]];portConstraint=eastwest;strokeColor=inherit;fontSize=16;" vertex="1" parent="s3mZJwamYYUPRJ0tXp7X-140">
          <mxGeometry y="90" width="670" height="30" as="geometry" />
        </mxCell>
        <mxCell id="s3mZJwamYYUPRJ0tXp7X-146" value="game_id" style="shape=partialRectangle;html=1;whiteSpace=wrap;connectable=0;fillColor=none;top=0;left=0;bottom=0;right=0;overflow=hidden;strokeColor=inherit;fontSize=16;" vertex="1" parent="s3mZJwamYYUPRJ0tXp7X-145">
          <mxGeometry width="180" height="30" as="geometry">
            <mxRectangle width="180" height="30" as="alternateBounds" />
          </mxGeometry>
        </mxCell>
        <mxCell id="s3mZJwamYYUPRJ0tXp7X-147" value="INTEGER" style="shape=partialRectangle;html=1;whiteSpace=wrap;connectable=0;fillColor=none;top=0;left=0;bottom=0;right=0;align=left;spacingLeft=6;overflow=hidden;strokeColor=inherit;fontSize=16;" vertex="1" parent="s3mZJwamYYUPRJ0tXp7X-145">
          <mxGeometry x="180" width="220" height="30" as="geometry">
            <mxRectangle width="220" height="30" as="alternateBounds" />
          </mxGeometry>
        </mxCell>
        <mxCell id="s3mZJwamYYUPRJ0tXp7X-148" value="not null, ForeignKey (game.id)" style="shape=partialRectangle;html=1;whiteSpace=wrap;connectable=0;fillColor=none;top=0;left=0;bottom=0;right=0;align=left;spacingLeft=6;overflow=hidden;strokeColor=inherit;fontSize=16;" vertex="1" parent="s3mZJwamYYUPRJ0tXp7X-145">
          <mxGeometry x="400" width="270" height="30" as="geometry">
            <mxRectangle width="270" height="30" as="alternateBounds" />
          </mxGeometry>
        </mxCell>
        <mxCell id="s3mZJwamYYUPRJ0tXp7X-149" value="" style="edgeStyle=elbowEdgeStyle;fontSize=12;html=1;endArrow=ERoneToMany;rounded=0;exitX=1;exitY=0.5;exitDx=0;exitDy=0;entryX=0;entryY=0.5;entryDx=0;entryDy=0;" edge="1" parent="1" source="s3mZJwamYYUPRJ0tXp7X-136" target="s3mZJwamYYUPRJ0tXp7X-145">
          <mxGeometry width="100" height="100" relative="1" as="geometry">
            <mxPoint x="1390" y="1090" as="sourcePoint" />
            <mxPoint x="1862" y="1840" as="targetPoint" />
            <Array as="points">
              <mxPoint x="1772" y="1455" />
            </Array>
          </mxGeometry>
        </mxCell>
      </root>
    </mxGraphModel>
  </diagram>
</mxfile>
